<?xml version="1.0" encoding="utf-8" ?>
<svg baseProfile="full" height="200mm" version="1.1" viewBox="0,0,200,200" width="200mm" xmlns="http://www.w3.org/2000/svg" xmlns:ev="http://www.w3.org/2001/xml-events" xmlns:xlink="http://www.w3.org/1999/xlink"><defs /><rect fill="#1a1a1a" height="200" width="200" x="0" y="0" /><text alignment-baseline="middle" fill="#e1ed5e" style="dominant-baseline: central; font-size:9.0px; font-family:Arial;" text-anchor="middle" x="100.0" y="100.0">2023</text><line stroke="#e1ed5e" stroke-width="0.3" x1="100.0" x2="100.0" y1="15.0" y2="10.0" /><path d="M 100.0 14.0 a86.0,86.0 0 0,1 42.46469731375804,11.215312516191453" fill="none" id="id13" stroke="none" /><text fill="#e1ed5e" style="font-size:6.75px; font-family:Arial;" text-anchor="middle"><textPath startOffset="22.20632615414155" xlink:href="#id13">January</textPath></text><path d="M 101.08401301168833 79.027996857942 l 0.8818973447501569 -17.06174527948429 a38.08452208604858,38.08452208604858 0 0,0 0.6543971866882057,0.03947502538223233 l -1.1754565802779744 17.04403698472175" fill="#ffbe11" stroke="none" /><path d="M 101.80526077348638 79.07773832637324 l 1.300252849850042 -15.069418649087385 a36.125410271956454,36.125410271956454 0 0,0 0.6190774966872912,0.05878886786713807 l -1.5594554736275776 15.044804236705069" fill="#ffa30f" stroke="none" /><path d="M 102.52436894288641 79.15227682838746 l 3.5948654567821814 -29.68851288294423 a50.90536498444905,50.90536498444905 0 0,0 0.868991599374162,0.11282004982466186 l -4.1053717846641895 29.622234509955433" fill="#a0ff22" stroke="none" /><path d="M 103.2404852339499 79.25152402106235 l 3.628235799308433 -23.23120085201303 a44.512821779657884,44.512821779657884 0 0,0 0.7560201657690164,0.12474980518263493 l -4.027585171216324 23.165304783890768" fill="#edff1a" stroke="none" /><path d="M 103.95276090670814 79.375362276772 l 4.372012080963688 -22.81219821275431 a44.227373440276956,44.227373440276956 0 0,0 0.7464603222988409,0.1497329183190305 l -4.7640388127296545 22.733561338358072" fill="#f0ff19" stroke="none" /><path d="M 105.01212808612495 79.60689891045804 l 2.5265659838431587 -10.27996783652569 a31.58589979126555,31.58589979126555 0 0,0 0.5268695209412307,0.13431077212716172 l -2.7031443934694144 10.23495406822966" fill="#ff6309" stroke="none" /><path d="M 105.71112130821622 79.79150937346287 l 5.374608847724475 -19.01775967607088 a40.76263148881813,40.76263148881813 0 0,0 0.6735729465692835,0.19663441368992163 l -5.701172012017186 18.92242693346226" fill="#ffe115" stroke="none" /><path d="M 106.40334571778207 80.00007090966166 l 6.039025178378027 -18.862026300863707 a40.80519783490077,40.80519783490077 0 0,0 0.6671012075484737,0.21993277970464264 l -6.362809208168918 18.755279796899828" fill="#ffe215" stroke="none" /><path d="M 107.08798089147638 80.2323363322302 l 6.3046349016292265 -17.582990726366116 a39.67913231727636,39.67913231727636 0 0,0 0.6409458561918422,0.2360657680000459 l -6.606363083593646 17.471861690559745" fill="#ffd313" stroke="none" /><path d="M 107.76421540070413 80.48803036053334 l 4.837219856393122 -12.156242724642624 a34.08330742280065,34.08330742280065 0 0,0 0.5432491796280583,0.22160498054484926 l -5.045752905609567 12.071176857914194" fill="#ff870c" stroke="none" /><path d="M 108.43124777332544 80.76684994638697 l 6.020982415044612 -13.734913428246204 a35.9966688342343,35.9966688342343 0 0,0 0.5653497646266682,0.2536559598378987 l -6.25651429813806 13.629237137891774" fill="#ffa10e" stroke="none" /><path d="M 109.73455568895987 81.39251694778311 l 7.458843560135828 -14.25748740559049 a37.09068967990966,37.09068967990966 0 0,0 0.5631690539104973,0.30082540481954567 l -7.703157660574637 14.126983274269191" fill="#ffb010" stroke="none" /><path d="M 110.36928655335952 81.73862282372117 l 7.456498414885017 -13.131658505900239 a36.10098750833087,36.10098750833087 0 0,0 0.5377384216111553,0.3114928024106337 l -7.681433568961501 13.001361546099556" fill="#ffa30f" stroke="none" /><line stroke="#e1ed5e" stroke-width="0.3" x1="143.23703022742887" x2="145.7803849466894" y1="26.81831364943548" y2="22.513508569990506" /><path d="M 143.74570117128098 25.957352633546492 a86.0,86.0 0 0,1 28.547481713284135,27.462654790039103" fill="none" id="id14" stroke="none" /><text fill="#e1ed5e" style="font-size:6.75px; font-family:Arial;" text-anchor="middle"><textPath startOffset="19.985693538727396" xlink:href="#id14">February</textPath></text><path d="M 110.99172775467656 82.1063720568725 l 7.862695769832321 -12.79982145441356 a36.02189781731339,36.02189781731339 0 0,0 0.5255437898299141,0.3290954729780123 l -8.081858712034498 12.662581640112604" fill="#ffa20e" stroke="none" /><path d="M 111.60114157652 82.49532879139004 l 8.249511348871462 -12.447480520878925 a35.932990618520435,35.932990618520435 0 0,0 0.5126359669163093,0.3461340932195393 l -8.462552010194313 12.303634515360715" fill="#ffa10e" stroke="none" /><path d="M 113.89432698308785 84.25364557470407 l 10.313264903889866 -11.687959025023961 a36.587553340676834,36.587553340676834 0 0,0 0.4686499923517951,0.42075859040379326 l -10.512925883837653 11.50870142585087" fill="#ffaa0f" stroke="none" /><path d="M 114.42810811169701 84.74124197986012 l 10.607068442770291 -11.217734814454285 a36.43850625277695,36.43850625277695 0 0,0 0.45204006936105084,0.43486218857445336 l -10.798591755743761 11.03348953911753" fill="#ffa70f" stroke="none" /><path d="M 114.94478906791727 85.2469230424477 l 10.656427136310027 -10.519726235014723 a35.974113642254146,35.974113642254146 0 0,0 0.43123666596956556,0.4444272910547529 l -10.835928065982701 10.334734748409854" fill="#ffa10e" stroke="none" /><path d="M 115.4437574822437 85.77008943001954 l 11.394077317110206 -10.498526763084454 a36.493355417839155,36.493355417839155 0 0,0 0.4216830841618057,0.4656329936853192 l -11.573104041888048 10.300840982129586" fill="#ffa80f" stroke="none" /><path d="M 116.38621287248628 86.86637796730983 l 11.937096402728098 -9.567635520252367 a36.29816720971564,36.29816720971564 0 0,0 0.3865684275414706,0.4909026463392219 l -12.100018910863533 9.360740479960107" fill="#ffa60f" stroke="none" /><path d="M 116.82858285166822 87.43820079747576 l 12.322557740688843 -9.198249036442155 a36.377035299726,36.377035299726 0 0,0 0.37024440426014416,0.5050129513218062 l -12.479064757462615 8.984773641448855" fill="#ffa70f" stroke="none" /><line stroke="#e1ed5e" stroke-width="0.3" x1="172.23445277983987" x2="176.4835382374775" y1="55.19839476539836" y2="52.563006222186495" /><path d="M 173.08426987136738 54.67131705675599 a86.0,86.0 0 0,1 12.851231095245387,41.99856678651699" fill="none" id="id15" stroke="none" /><text fill="#e1ed5e" style="font-size:6.75px; font-family:Arial;" text-anchor="middle"><textPath startOffset="22.20632615414155" xlink:href="#id15">March</textPath></text><path d="M 117.84615892207809 88.93136811851018 l 7.842451191594192 -4.864083395610561 a30.228398992890995,30.228398992890995 0 0,0 0.2704494578030875,0.44454779873139727 l -7.925016447683503 4.728367823672082" fill="#ff5007" stroke="none" /><path d="M 118.3937258080291 89.86733742301442 l 14.163426393197334 -7.802292046432225 a37.170294010108115,37.170294010108115 0 0,0 0.30389706815257017,0.5630751133209044 l -14.295631560568369 7.557335949778861" fill="#ffb110" stroke="none" /><path d="M 119.04729006885535 91.15688171328212 l 13.330050213598426 -6.188765455905287 a35.696634191720975,35.696634191720975 0 0,0 0.2539521162119086,0.559549825444307 l -13.434604646773682 5.958393621618917" fill="#ff9d0e" stroke="none" /><path d="M 119.34039704204932 91.81776055985345 l 14.315326609854665 -6.056309481706527 a36.54372736781694,36.54372736781694 0 0,0 0.2401067551000992,0.5814375525718676 l -14.41745505184096 5.8089973586813555" fill="#ffa90f" stroke="none" /><path d="M 119.85752413597 93.16781622104841 l 15.254003220416177 -5.248295439702951 a37.13162171856487,37.13162171856487 0 0,0 0.2027434396615984,0.6061770789160956 l -15.342083953849546 4.984945257864541" fill="#ffb110" stroke="none" /><path d="M 120.18372546131832 94.20196356495316 l 14.285927456427357 -4.103817605899589 a35.86368198774437,35.86368198774437 0 0,0 0.16533708917211842,0.5948054787670809 l -14.35445131616584 3.857300823713557" fill="#ffa00e" stroke="none" /><path d="M 120.37134235888165 94.90015583598534 l 17.126805570501944 -4.2875937136688975 a38.655337122334124,38.655337122334124 0 0,0 0.15603355632544086,0.6468598257129812 l -17.198071927088204 3.9921486562965103" fill="#ffc512" stroke="none" /><path d="M 120.6074358757038 95.95851677861258 l 14.984580389665094 -2.9387416556643444 a36.27003117131961,36.27003117131961 0 0,0 0.11487975557748391,0.6136922479183837 l -15.032945869152437 2.680371330283398" fill="#ffa50f" stroke="none" /><path d="M 120.73433829027371 96.67025291283417 l 30.157122161457025 -4.842960902278693 a51.543514653065756,51.543514653065756 0 0,0 0.13313961435018604,0.8772237089255915 l -30.23601766924651 4.323138080961019" fill="#98ff23" stroke="none" /><path d="M 120.83666639777658 97.38593545837742 l 31.399276808498957 -3.939197113912988 a52.64540816609893,52.64540816609893 0 0,0 0.10506430820110399,0.9001268309753215 l -31.462431469703652 3.398126544612814" fill="#8cff24" stroke="none" /><path d="M 120.91429891909075 98.10471618934814 l 30.453197849123637 -2.759712533961021 a51.57798673078347,51.57798673078347 0 0,0 0.07251746103703012,0.8848967046449361 l -30.49618979398016 2.235101912108316" fill="#98ff23" stroke="none" /><path d="M 120.96714384426684 98.82574320788733 l 10.136331016396218 -0.5676813032577238 a31.152214957142327,31.152214957142327 0 0,0 0.025376285402438453,0.5356532773865218 l -10.144600910032153 0.3931169192482023" fill="#ff5d08" stroke="none" /><line stroke="#e1ed5e" stroke-width="0.3" x1="184.98032266829074" x2="189.97916517819016" y1="98.17113171792111" y2="98.06355123074" /><path d="M 185.9800911702706 98.14961562048488 a86.0,86.0 0 0,1 -9.607161424134198,41.387399972396054" fill="none" id="id16" stroke="none" /><text fill="#e1ed5e" style="font-size:6.75px; font-family:Arial;" text-anchor="middle"><textPath startOffset="21.466115282336823" xlink:href="#id16">April</textPath></text><path d="M 120.99980553446 99.90962569577887 l 22.43714057935204 -0.09655998791241982 a43.437348355117,43.437348355117 0 0,0 -0.003217885741564636,0.7477233201114077 l -22.435478396320974 -0.2896728104026726" fill="#faff18" stroke="none" /><path d="M 120.9764740272857 100.99374915477107 l 15.018104075054072 0.711474588695687 a36.03494749240966,36.03494749240966 0 0,0 -0.034685608780851175,0.6193348452561218 l -15.003632115385692 -0.9698811502872322" fill="#ffa20f" stroke="none" /><path d="M 120.92983693683757 101.71520430193887 l 9.943213241534432 0.8148483038087299 a30.976545861411434,30.976545861411434 0 0,0 -0.048124872127154245,0.5310539537422319 l -9.927713773130202 -0.9858836460995323" fill="#ff5b08" stroke="none" /><path d="M 120.8583938346157 102.4346265915055 l 43.48157533905216 5.075242149533272 a64.776768688907,64.776768688907 0 0,0 -0.13880270604127806,1.1063941363496725 l -43.38777112376403 -5.82295404017034" fill="#34ff5c" stroke="none" /><path d="M 120.70491114924044 103.5080841355445 l 14.69535630214753 2.489870443690788 a35.9047962640699,35.9047962640699 0 0,0 -0.10848986000199244,0.6084687499584034 l -14.65031999980635 -2.7424579443824095" fill="#ffa00e" stroke="none" /><path d="M 120.5718875245553 104.21870165774334 l 9.447453729840364 1.937400671861421 a30.64406052141958,30.64406052141958 0 0,0 -0.1104148712733122,0.5158215195855412 l -9.412704819842608 -2.0997360108631313" fill="#ff5607" stroke="none" /><path d="M 120.49622156327973 104.57218783832717 l 21.274644274500737 4.745834226874151 a42.79755563166469,42.79755563166469 0 0,0 -0.16658323699466446,0.7176362250846464 l -21.18980047157552 -5.1113391093073615" fill="#fffc17" stroke="none" /><path d="M 120.13307415673323 105.97154293290107 l 14.319930400800192 4.24734337731207 a35.936543524140994,35.936543524140994 0 0,0 -0.18100591397724902,0.5915377998097421 l -14.24469771431681 -4.49320814967387" fill="#ffa10e" stroke="none" /><path d="M 119.9155931802556 106.66101706037122 l 8.84369458743608 2.9578833023174016 a30.325234988244226,30.325234988244226 0 0,0 -0.16983455659136515,0.4936187192482522 l -8.791469199901483 -3.1096747246549543" fill="#ff5107" stroke="none" /><path d="M 119.67450827220406 107.3425965602758 l 14.005201426446877 5.2267910535320485 a35.94874615854562,35.94874615854562 0 0,0 -0.22135135808289988,0.5778785478582167 l -13.91315578877047 -5.467093168223409" fill="#ffa10e" stroke="none" /><path d="M 119.41010516605496 108.01547362559984 l 13.82461033000985 5.708923189049928 a35.956993506553616,35.956993506553616 0 0,0 -0.2411670121272665,0.5700475770851449 l -13.724292336690274 -5.946045291801237" fill="#ffa10e" stroke="none" /><path d="M 118.97047184881838 109.00673069616215 l 8.701448417160915 4.131241604556946 a30.63236013403436,30.63236013403436 0 0,0 -0.23024848996964656,0.4743800866874757 l -8.629046670576555 -4.280410647209697" fill="#ff5607" stroke="none" /><path d="M 118.64920377521936 109.65438752849418 l 26.53997463281163 13.73931043865999 a50.885429641217414,50.885429641217414 0 0,0 -0.40937931932296956,0.7743913935344781 l -26.29954280526377 -14.194116847280602" fill="#a0ff22" stroke="none" /><line stroke="#e1ed5e" stroke-width="0.3" x1="174.80103733775053" x2="179.2010983576182" y1="140.37084112569926" y2="142.7455964860345" /><path d="M 175.68104954172406 140.8457921977663 a86.0,86.0 0 0,1 -30.038265399797805,32.042727171017184" fill="none" id="id17" stroke="none" /><text fill="#e1ed5e" style="font-size:6.75px; font-family:Arial;" text-anchor="middle"><textPath startOffset="22.206326154141568" xlink:href="#id17">May</textPath></text><path d="M 118.30583269289576 110.29060199501025 l 14.557033453222287 8.183218977702973 a37.6994699255776,37.6994699255776 0 0,0 -0.32286544820135865,0.5629431233486876 l -14.414016008868547 -8.432581946909977" fill="#ffb911" stroke="none" /><path d="M 117.75023020441432 111.22182372390056 l 7.700222531115044 4.8681362936628725 a30.11000428113892,30.11000428113892 0 0,0 -0.2807329715211045,0.43570380606241416 l -7.6152846962168885 -4.9999616996467395" fill="#ff4e07" stroke="none" /><path d="M 117.35343817320211 111.8261652097733 l 17.368259322089894 11.83626564944388 a42.017935588529326,42.017935588529326 0 0,0 -0.41245424405424896,0.5941711008512752 l -17.161944170873507 -12.133478012482174" fill="#fff216" stroke="none" /><path d="M 116.93607887273984 112.41649034213515 l 3.140802289755546 2.3026428720803893 a24.894458013597824,24.894458013597824 0 0,0 -0.25634028891298133,0.3434097075302577 l -3.1007007341474724 -2.3563654591199623" fill="#ff0000" stroke="none" /><path d="M 116.27256486870786 113.27417163493432 l 11.585346715380929 9.450623303147454 a35.9510715112189,35.9510715112189 0 0,0 -0.39529743905017706,0.4761612302639697 l -11.420953276437208 -9.648645790525196" fill="#ffa10e" stroke="none" /><path d="M 115.80600337817218 113.82643327865902 l 22.142394019771725 19.369243838511434 a50.418586298504145,50.418586298504145 0 0,0 -0.5770314776231912,0.6483009821783502 l -21.805703692500195 -19.747518990430653" fill="#a5ff21" stroke="none" /><path d="M 115.32070863581623 114.36230785411682 l 10.926786848885197 10.243251817551672 a35.97727874611226,35.97727874611226 0 0,0 -0.42743311173180154,0.4481619087957328 l -10.74884718577443 -10.429820842929912" fill="#ffa10e" stroke="none" /><path d="M 114.55890576462653 115.13401014063108 l 6.6726164659427285 6.936197465160914 a30.624689386015255,30.624689386015255 0 0,0 -0.38304802307706604,0.3621958144714763 l -6.552232608474855 -7.050027916378312" fill="#ff5607" stroke="none" /><path d="M 114.0293411484842 115.62618273729858 l 12.606238037655233 14.041099800867578 a39.86980977858413,39.86980977858413 0 0,0 -0.5146198489830921,0.45409218290372516 l -12.362675835765552 -14.256015125543591" fill="#ffd614" stroke="none" /><path d="M 113.20401910651253 116.32954008644616 l 9.39104080913014 11.613992384372263 a35.93574459419431,35.93574459419431 0 0,0 -0.48434967861950734,0.38479667781942506 l -9.18973363779328 -11.773922976196815" fill="#ffa10e" stroke="none" /><path d="M 112.63410532772338 116.77436683061366 l 6.24250384666815 8.288204566076509 a31.3760873745742,31.3760873745742 0 0,0 -0.43420774097674253,0.3212165063335806 l -6.098911135272843 -8.394431021149858" fill="#ff6008" stroke="none" /><path d="M 112.04921762599082 117.19931262002967 l 13.336310508912849 19.036536708060105 a44.2432120806798,44.2432120806798 0 0,0 -0.6275017200190551,0.43160140489527593 l -13.00665190427091 -19.263278902320476" fill="#f0ff19" stroke="none" /><path d="M 111.1453310114006 117.79835938074945 l 7.996750756448708 12.770284139247659 a36.06745431909064,36.06745431909064 0 0,0 -0.5290250540843432,0.3249703966339322 l -7.775746502432056 -12.906043002709968" fill="#ffa20f" stroke="none" /><line stroke="#e1ed5e" stroke-width="0.3" x1="143.8653032363475" x2="146.44561519142675" y1="172.8068346515853" y2="177.08958963109032" /><path d="M 144.38136562736335 173.6633856474863 a86.0,86.0 0 0,1 -40.68145358897372,12.25698825130547" fill="none" id="id18" stroke="none" /><text fill="#e1ed5e" style="font-size:6.75px; font-family:Arial;" text-anchor="middle"><textPath startOffset="21.466115282336833" xlink:href="#id18">June</textPath></text><path d="M 109.89434966115114 118.52300852407294 l 7.338162716158931 13.737623512148256 a36.57468881905361,36.57468881905361 0 0,0 -0.5578669317145397,0.2918496122535707 l -7.100604881917896 -13.861902543346543" fill="#ffa90f" stroke="none" /><path d="M 109.2508944713604 118.85261126421891 l 4.187509667052623 8.533822557646417 a30.505859490706456,30.505859490706456 0 0,0 -0.4734034837993384,0.2272624409060159 l -4.039993515253053 -8.604639275051992" fill="#ff5407" stroke="none" /><path d="M 108.59647513512805 119.15986991738527 l 6.193245813160412 13.803539506751212 a36.129243094638625,36.129243094638625 0 0,0 -0.5696021632809031,0.24969684931779143 l -5.954722975221755 -13.908100909363458" fill="#ffa30f" stroke="none" /><path d="M 107.93186726928326 119.44442032107085 l 9.072828145414942 22.24140646471396 a45.02074878276807,45.02074878276807 0 0,0 -0.7200724122355047,0.2865316734294564 l -8.688634657137571 -22.394284982549486" fill="#e6ff1a" stroke="none" /><path d="M 106.57524785965236 119.94407469862006 l 4.70447809747761 14.269646498022064 a36.025143105746444,36.025143105746444 0 0,0 -0.590604181492989,0.18909280824872038 l -4.45815257089368 -14.34851215293049" fill="#ffa20f" stroke="none" /><path d="M 105.88484417918355 120.15858648285463 l 2.6115073251821728 8.94574174988554 a30.319134399992596,30.319134399992596 0 0,0 -0.5022419937049947,0.141938604180709 l -2.4571341633725723 -8.989369147404767" fill="#ff5107" stroke="none" /><path d="M 105.18746579009965 120.34920634021253 l 7.386397495086383 28.975097440681964 a50.90175813647808,50.90175813647808 0 0,0 -0.8508997616479123,0.20913045912471032 l -6.886544448695259 -29.097949158120706" fill="#a0ff22" stroke="none" /><path d="M 104.48393922423573 120.51570834832081 l 3.194469567562417 14.615899702982166 a35.96092109282435,35.96092109282435 0 0,0 -0.6058705208336018,0.1269660584094143 l -2.942407585299437 -14.66872174211812" fill="#ffa10e" stroke="none" /><path d="M 103.41894727170886 120.7198165907248 l 4.017386627909941 24.346533447039537 a45.67575908064278,45.67575908064278 0 0,0 -0.7768449069553909,0.12132719784400277 l -3.5977058573460328 -24.412078952230647" fill="#deff1b" stroke="none" /><path d="M 102.34483914955558 120.86867818915974 l 1.6776860495362793 14.931126630520001 a36.025084789691945,36.025084789691945 0 0,0 -0.6168307711853587,0.06393703150222241 l -1.4204226817453178 -14.957793030477983" fill="#ffa20f" stroke="none" /><path d="M 101.26447882468166 120.96189622390904 l 0.5439685177751145 9.017637461462602 a30.034029396382554,30.034029396382554 0 0,0 -0.5163163317006858,0.02668765677362892 l -0.3886641176609491 -9.025664924998432" fill="#ff4d07" stroke="none" /><line stroke="#e1ed5e" stroke-width="0.3" x1="102.19456741930631" x2="102.32365962044197" y1="184.97166512339345" y2="189.96999836594603" /><path d="M 102.22038585953345 185.97133177190398 a86.0,86.0 0 0,1 -42.740103519485714,-10.115201625700543" fill="none" id="id19" stroke="none" /><text fill="#e1ed5e" style="font-size:6.75px; font-family:Arial;" text-anchor="middle"><textPath startOffset="22.20632615414155" xlink:href="#id19">July</textPath></text><path d="M 100.54218724476979 120.99299961872073 l 0.5513772437890407 21.348828066859515 a42.355947103635955,42.355947103635955 0 0,0 -0.7290069836203777,0.012550516343575539 l -0.18381057027599507 -21.35515606048225" fill="#fff617" stroke="none" /><path d="M 99.81925306533755 120.99922214144158 l -0.07748878175527403 9.002665215803246 a30.002998694831163,30.002998694831163 0 0,0 -0.5163949120195074,-0.008890206717710951 l 0.23244338366744932 -8.999997531806375" fill="#ff4c07" stroke="none" /><path d="M 99.09653310690486 120.98055641714683 l -0.6470769892598495 15.026599627679104 a36.04052542302281,36.04052542302281 0 0,0 -0.6195742713503916,-0.032024912799303855 l 0.9056393290237299 -15.013234908117598" fill="#ffa20f" stroke="none" /><path d="M 98.01472825383883 120.90594882070398 l -2.0661279435294277 21.757406827541583 a42.855288525622036,42.855288525622036 0 0,0 -0.7337792769940965,-0.07605922230288208 l 2.4403398171291175 -21.71861823678294" fill="#fffc17" stroke="none" /><path d="M 97.2962882734958 120.8252237178851 l -1.9257727479333682 14.833182070550345 a35.95766997278584,35.95766997278584 0 0,0 -0.6131149307044956,-0.08497214267966717 l 2.1808162698246947 -14.797835362378072" fill="#ffa10e" stroke="none" /><path d="M 96.22490169976321 120.6578951692458 l -2.742141954975167 15.005405565601972 a36.25390240854561,36.25390240854561 0 0,0 -0.6129194977709962,-0.11746748050850775 l 3.0000290673178585 -14.955980886744996" fill="#ffa50f" stroke="none" /><path d="M 95.51606077576429 120.51570834832081 l -1.9601205139806799 8.968288547497577 a30.17999302290062,30.17999302290062 0 0,0 -0.5065637824779265,-0.11529226766189103 l 2.114204445851469 -8.933219546258" fill="#ff4f07" stroke="none" /><path d="M 94.11515582081647 120.15858648285463 l -4.234136453324681 14.50407237229432 a36.10946812055687,36.10946812055687 0 0,0 -0.5951614560084226,-0.17931726451146868 l 4.48317288377335 -14.429039738677126" fill="#ffa30f" stroke="none" /><path d="M 93.42475214034765 119.94407469862007 l -4.81047849767616 14.591167442139827 a36.36368675485041,36.36368675485041 0 0,0 -0.5927805046750003,-0.20110333167050534 l 5.060928735288386 -14.506201123571199" fill="#ffa60f" stroke="none" /><path d="M 92.7421414339146 119.70592522655815 l -5.589767770747205 15.176865837381621 a37.17352034582346,37.17352034582346 0 0,0 -0.5985463918141151,-0.22631902980524776 l 5.8501843833216025 -15.07839855746974" fill="#ffb210" stroke="none" /><path d="M 91.7346041902142 119.30500536409082 l -3.5987058771885847 8.40528848971254 a30.143279421837974,30.143279421837974 0 0,0 -0.47522936259929743,-0.20832658685993335 l 3.7428559144456255 -8.342097349558154" fill="#ff4f07" stroke="none" /><path d="M 91.07499286063937 119.00905698771935 l -6.360151282191653 13.546261228241265 a35.96504986948312,35.96504986948312 0 0,0 -0.5581216260573378,-0.267932297502886 l 6.592385576249233 -13.434774654238817" fill="#ffa10e" stroke="none" /><path d="M 90.42595943632237 118.69057910512821 l -4.093619516654036 7.991622648079606 a29.979073075570202,29.979073075570202 0 0,0 -0.45726523047276796,-0.2392195568939093 l 4.2305756496533 -7.91997367224098" fill="#ff4c07" stroke="none" /><line stroke="#e1ed5e" stroke-width="0.3" x1="58.666819895761336" x2="56.23545636021788" y1="174.27360380694188" y2="178.64263932499728" /><path d="M 58.180547188652646 175.14741091055294 a86.0,86.0 0 0,1 -31.652253787137756,-30.449443065178592" fill="none" id="id20" stroke="none" /><text fill="#e1ed5e" style="font-size:6.75px; font-family:Arial;" text-anchor="middle"><textPath startOffset="22.20632615414155" xlink:href="#id20">August</textPath></text><path d="M 89.4739219176387 118.17145234162733 l -4.5949320373260365 7.932355040117285 a30.167096427447422,30.167096427447422 0 0,0 -0.4470937926669786,-0.2641508933729124 l 4.730793701021397 -7.852085574450623" fill="#ff4f07" stroke="none" /><path d="M 88.8546689885994 117.79835938074946 l -4.7631116795833774 7.60637556274936 a29.974641055428023,29.974641055428023 0 0,0 -0.43494374317620627,-0.2776016755460175 l 4.893337224806507 -7.523259458379538" fill="#ff4c07" stroke="none" /><path d="M 88.24862548938628 117.40417183066458 l -16.875816599834113 24.993638967170973 a51.15750610930095,51.15750610930095 0 0,0 -0.7255671902151294,-0.49905172950482896 l 17.303540674672135 -24.699446448301046" fill="#9dff22" stroke="none" /><path d="M 87.36589467227662 116.77436683061367 l -8.997013664691801 11.945381463649653 a35.95454423226451,35.95454423226451 0 0,0 -0.49115837239747107,-0.37659929588695024 l 9.20130076558276 -11.788742825935335" fill="#ffa10e" stroke="none" /><path d="M 86.79598089348748 116.32954008644616 l -5.643036070942932 6.978798120965658 a29.9748247509997,29.9748247509997 0 0,0 -0.39842233236390606,-0.32787445508120117 l 5.7623285318515265 -6.8806285470272766" fill="#ff4c07" stroke="none" /><path d="M 86.24171649860922 115.8653595955263 l -13.858252079260097 15.980638324590846 a42.1525873583753,42.1525873583753 0 0,0 -0.544084816583844,-0.48009159097834947 l 14.131279248750529 -15.739723591840209" fill="#fff316" stroke="none" /><path d="M 85.70375840098266 115.38237550388516 l -10.203258277633537 10.978434374001607 a35.98774501999408,35.98774501999408 0 0,0 -0.4501281437063227,-0.42562425545645954 l 10.390722255730678 -10.801175481799216" fill="#ffa10e" stroke="none" /><path d="M 84.9287848128048 114.62390073753433 l -6.456490966466207 6.26486197918594 a29.996375448941052,29.996375448941052 0 0,0 -0.356376150327994,-0.37365896884582817 l 6.563373668173159 -6.152795893757612" fill="#ff4c07" stroke="none" /><path d="M 84.43433777217949 114.09645910891817 l -15.58740699630824 14.116151444222245 a42.029336377184535,42.029336377184535 0 0,0 -0.4810180501623558,-0.5404288785947502 l 15.828083896118933 -13.84574839588663" fill="#fff216" stroke="none" /><path d="M 83.95833913139862 113.55231037782056 l -7.019301696888557 5.930044027921787 a30.18890736078199,30.18890736078199 0 0,0 -0.3319399746880012,-0.3998430829731917 l 7.120337671470095 -5.808339687834834" fill="#ff4f07" stroke="none" /><path d="M 83.28015986056508 112.70617746262583 l -11.930413516184904 9.066471334353233 a35.984514310574646,35.984514310574646 0 0,0 -0.37053551395767836,-0.4963928729945937 l 12.084710296837667 -8.85976558184933" fill="#ffa10e" stroke="none" /><path d="M 82.85270091963577 112.12312394758628 l -17.113320978374695 12.099101462179554 a41.95838760737559,41.95838760737559 0 0,0 -0.4118697123011414,-0.5933290392644929 l 17.31905159783797 -11.802731160728047" fill="#fff116" stroke="none" /><path d="M 82.44556493220864 111.52570212397912 l -12.656241599680124 8.309698952071098 a36.14039458216084,36.14039458216084 0 0,0 -0.3369577854676981,-0.5229659658968854 l 12.797404248524868 -8.090611386252766" fill="#ffa30f" stroke="none" /><path d="M 82.05923443525364 110.91462005526583 l -7.6911967067637566 4.679091843750146 a30.002688890791617,30.002688890791617 0 0,0 -0.26462246490718144,-0.44352247224018027 l 7.77060004736917 -4.546007277623855" fill="#ff4c07" stroke="none" /><line stroke="#e1ed5e" stroke-width="0.3" x1="26.63291911575756" x2="22.317208475507996" y1="142.92168965132927" y2="145.44649492493687" /><path d="M 25.769776987707644 143.4266507060508 a86.0,86.0 0 0,1 -11.730757126820373,-40.83630448921669" fill="none" id="id21" stroke="none" /><text fill="#e1ed5e" style="font-size:6.75px; font-family:Arial;" text-anchor="middle"><textPath startOffset="21.46611528233685" xlink:href="#id21">September</textPath></text><path d="M 81.51974371655577 109.97397251340807 l -26.742709211000474 14.433298029721469 a51.389020845675354,51.389020845675354 0 0,0 -0.41343077031694736,-0.7820552119859002 l 26.987192489542306 -13.970827802649442" fill="#9aff23" stroke="none" /><path d="M 81.18737489456691 109.33194174019688 l -8.063818987953871 4.000031286295414 a30.001412498148696,30.001412498148696 0 0,0 -0.22550596475196383,-0.46460908004948054 l 8.131478209320555 -3.8606332502806486" fill="#ff4c07" stroke="none" /><path d="M 80.73074385275274 108.34839909993369 l -13.820967257130027 5.987929670347992 a36.06235166432168,36.06235166432168 0 0,0 -0.2418736594198904,-0.5717178825446706 l 13.921991897742224 -5.749137262137163" fill="#ffa20f" stroke="none" /><path d="M 80.45479744820244 107.68017299344265 l -22.966023687878145 9.024364645337691 a45.67544125814574,45.67544125814574 0 0,0 -0.28124265889375677,-0.7342358353926886 l 23.11796062636541 -8.627705243111844" fill="#deff1b" stroke="none" /><path d="M 80.20201598880116 107.00284435728193 l -14.11449587563426 4.992509224305573 a35.9714442248593,35.9714442248593 0 0,0 -0.20145579357417645,-0.5855248354932274 l 14.198342500151666 -4.748811685723049" fill="#ffa10e" stroke="none" /><path d="M 79.97269907076064 106.31721596034903 l -14.460968816784755 4.561426591345072 a36.163318623185724,36.163318623185724 0 0,0 -0.18214813941254837,-0.5952706586210248 l 14.537343728703433 -4.311828960171999" fill="#ffa40f" stroke="none" /><path d="M 79.67330655649465 105.27499134158121 l -20.25545020055712 5.256502968607881 a41.92639687777695,41.92639687777695 0 0,0 -0.17526967991637143,-0.7001152466386898 l 20.34293119476855 -4.9070598825718" fill="#fff016" stroke="none" /><path d="M 79.50377843672027 104.57218783832718 l -8.772761137971807 1.9569807859339714 a29.988387607375593,29.988387607375593 0 0,0 -0.10805238930553059,-0.5047847903428021 l 8.805147566001779 -1.8056821761750055" fill="#ff4c07" stroke="none" /><path d="M 79.29508885075956 103.50808413554451 l -14.766348799052372 2.50189887744448 a35.97680055446534,35.97680055446534 0 0,0 -0.0981965281655093,-0.6114698746225422 l 14.807227081579171 -2.247349773128724" fill="#ffa10e" stroke="none" /><path d="M 79.23777060512086 103.15116336523772 l -20.67617430512662 3.138102453470353 a41.91295940091825,41.91295940091825 0 0,0 -0.10211982583098761,-0.7142258240152491 l 20.727128181974205 -2.7817311574747037" fill="#fff016" stroke="none" /><path d="M 79.10278846688536 102.07522291339032 l -8.952194462592884 0.8890085188858543 a29.996228200903438,29.996228200903438 0 0,0 -0.04660185977235489,-0.5142476393175999 l 8.966170918642314 -0.7347794910196882" fill="#ff4c07" stroke="none" /><path d="M 79.04373962182676 101.35467743843564 l -14.94409031904962 0.9660321845517036 a35.975281421245555,35.975281421245555 0 0,0 -0.034628176922445714,-0.618309360843799 l 14.958504846859597 -0.7086511073724671" fill="#ffa10e" stroke="none" /><line stroke="#e1ed5e" stroke-width="0.3" x1="15.007084014347285" x2="10.007500721073583" y1="101.09737516637583" y2="101.16192664675087" /><path d="M 14.007167355692545 101.11028546245083 a86.0,86.0 0 0,1 10.666146001902534,-42.60595125391555" fill="none" id="id22" stroke="none" /><text fill="#e1ed5e" style="font-size:6.75px; font-family:Arial;" text-anchor="middle"><textPath startOffset="22.20632615414155" xlink:href="#id22">October</textPath></text><path d="M 79.00175016825051 100.2711162175752 l -62.994749495248485 0.8133486527256131 a84.0,84.0 0 0,0 -0.006222810841987947,-1.4459620871852985 l 62.99941660337998 0.27112291266336075" fill="#4dd2ff" stroke="none" /><path d="M 79.03285615573316 98.82574320788736 l -20.897424481046166 -1.170352186105659 a41.930171384404616,41.930171384404616 0 0,0 0.04656127694133248,-0.7202823457734148 l 20.87418261310042 1.5298935961320854" fill="#fff016" stroke="none" /><path d="M 79.12142395522702 97.74499172005258 l -8.994573064014016 -0.9714664779076992 a30.046882983745554,30.046882983745554 0 0,0 0.05996448853291654,-0.5137391180540001 l 8.97651822247751 1.1261493342865612" fill="#ff4d07" stroke="none" /><path d="M 79.21141760316559 97.0276538004421 l -14.860251926560615 -2.1247150236233243 a36.01137905898253,36.01137905898253 0 0,0 0.09301928967014898,-0.6128808971269135 l 14.821476743451164 2.38019503314233" fill="#ffa20e" stroke="none" /><path d="M 79.3925641242962 95.95851677861259 l -14.875052837011333 -2.917261362385743 a36.158417158804795,36.158417158804795 0 0,0 0.12504046250817838,-0.6097417024062722 l 14.822633078588161 3.1728787209554175" fill="#ffa40f" stroke="none" /><path d="M 79.54389044137918 95.25157060432595 l -20.40265445264347 -4.736020985568286 a41.94512362077903,41.94512362077903 0 0,0 0.16931288914511392,-0.701911233343525 l 20.318108763237543 5.086517450571208" fill="#fff116" stroke="none" /><path d="M 79.71946130924805 94.55025226153421 l -14.4493192277788 -3.882793548273251 a35.96191538155361,35.96191538155361 0 0,0 0.1657899602241652,-0.5964346968952184 l 14.380342496988273 4.130939548587412" fill="#ffa10e" stroke="none" /><path d="M 80.02781315780177 93.51064311812611 l -13.281039294771643 -4.315271253314492 a34.96451111707642,34.96451111707642 0 0,0 0.19091073650623486,-0.5707988025764419 l 13.204791264493636 4.543243158813256" fill="#ff930d" stroke="none" /><path d="M 80.2630227832202 92.82701384747504 l -20.51767686565397 -7.456714897263771 a42.83065874000296,42.83065874000296 0 0,0 0.25779041600900165,-0.6907501495729058 l 20.386281861143342 7.808788183866018" fill="#fffc17" stroke="none" /><path d="M 80.52162464483688 92.15188598940014 l -14.055233483849987 -5.663053145631893 a36.153209535137734,36.153209535137734 0 0,0 0.23754089834800302,-0.5752241269247304 l 13.955670898615784 5.9041518430099345" fill="#ffa40f" stroke="none" /><path d="M 80.95270993114464 91.15688171328213 l -10.85054068404419 -5.0375992803691085 a32.96292772049023,32.96292772049023 0 0,0 0.24336342143088577,-0.5125854309437632 l 10.762219068771554 5.223627126953405" fill="#ff770b" stroke="none" /><path d="M 81.26839172434947 90.50648371742162 l -20.933067708372025 -10.609255553997215 a44.46805546041914,44.46805546041914 0 0,0 0.3519129211064068,-0.6797837519445132 l 20.747345354105505 10.968012028202063" fill="#edff19" stroke="none" /><path d="M 81.6062741919709 89.86733742301443 l -13.10878206479109 -7.221313769926242 a35.96621327477044,35.96621327477044 0 0,0 0.303387612060587,-0.5396927089563152 l 12.982536811438072 7.445889988817342" fill="#ffa10e" stroke="none" /><line stroke="#e1ed5e" stroke-width="0.3" x1="26.266209847984243" x2="21.928928074336255" y1="57.711370442889674" y2="55.22380399835377" /><path d="M 25.398753493254645 57.213857153982495 a86.0,86.0 0 0,1 29.58750427330803,-30.492523968695096" fill="none" id="id23" stroke="none" /><text fill="#e1ed5e" style="font-size:6.75px; font-family:Arial;" text-anchor="middle"><textPath startOffset="21.46611528233685" xlink:href="#id23">November</textPath></text><path d="M 82.15384107792192 88.93136811851018 l -12.72766498253317 -7.894014561772366 a35.9769463446016,35.9769463446016 0 0,0 0.3309406288150818,-0.5234685992215464 l 12.589896757472125 8.111930808708127" fill="#ffa10e" stroke="none" /><path d="M 82.54541684631803 88.32363383020206 l -12.42915989650424 -8.314573934923066 a35.95380070256961,35.95380070256961 0 0,0 0.3485387709173917,-0.5114376388958622 l 12.284196659918107 8.527289597089345" fill="#ffa10e" stroke="none" /><path d="M 82.95767976084542 87.72973835380427 l -12.134307273327765 -8.736552479338556 a35.952215963788504,35.952215963788504 0 0,0 0.36592060544979993,-0.499115294603684 l 11.982124055364332 8.94413021761374" fill="#ffa10e" stroke="none" /><path d="M 83.6137871275137 86.86637796730984 l -11.600119331753186 -9.297546908667263 a35.866309125999706,35.866309125999706 0 0,0 0.39026217709262745,-0.47841528399631555 l 11.438358662584164 9.495846362271662" fill="#ffa00e" stroke="none" /><path d="M 84.07557802195018 86.31012108654704 l -13.6116982539097 -11.701680673831488 a38.950143730561315,38.950143730561315 0 0,0 0.44145005346124,-0.504653723464057 l 13.408256336870615 11.934249953498487" fill="#ffc912" stroke="none" /><path d="M 84.5562425177563 85.77008943001954 l -11.03985957454641 -10.172149791367659 a36.01169979728229,36.01169979728229 0 0,0 0.42396518958467094,-0.4522565041309458 l 10.863127062991284 10.360675712376654" fill="#ffa20e" stroke="none" /><path d="M 85.05521093208273 85.24692304244772 l -10.651753085467393 -10.515112143007686 a35.967545796615816,35.967545796615816 0 0,0 0.43874274233026705,-0.43685864156271653 l 10.469174542969812 10.696906635220513" fill="#ffa10e" stroke="none" /><path d="M 85.83668400450813 84.49514656593479 l -16.198979005989425 -17.733332741379886 a45.018284929465345,45.018284929465345 0 0,0 0.5766392382523833,-0.5177124016177581 l 15.89132878014107 18.009544151766924" fill="#e6ff1a" stroke="none" /><path d="M 86.37877921826538 84.01681056812374 l -9.702230883137782 -11.384632596583115 a35.95804611133738,35.95804611133738 0 0,0 0.47454768883018694,-0.3974200421343491 l 9.504825657348485 11.549953796111277" fill="#ffa10e" stroke="none" /><path d="M 86.93701828274178 83.55741782278169 l -9.346329624311876 -11.764373267099174 a36.025124153028734,36.025124153028734 0 0,0 0.4888565514263361,-0.38156029250238427 l 9.142440517726113 11.92351194882478" fill="#ffa20f" stroke="none" /><path d="M 87.51073957382395 83.11751280151077 l -13.603288363692004 -18.388386006913 a43.87317630424319,43.87317630424319 0 0,0 0.6109959950767715,-0.4439145748642299 l 13.284747052261451 18.619819816593896" fill="#f5ff19" stroke="none" /><path d="M 88.39885842347998 82.49532879139004 l -8.37982606414316 -12.644109122420284 a36.16888197478525,36.16888197478525 0 0,0 0.5219220894702981,-0.3394726451989036 l 8.160936948888574 12.786480691778722" fill="#ffa40f" stroke="none" /><path d="M 89.00827224532344 82.1063720568725 l -7.828523911453634 -12.744192482008078 a35.95661153639662,35.95661153639662 0 0,0 0.5301681381878328,-0.3194203711663865 l 7.607993707048152 12.877059462633085" fill="#ffa10e" stroke="none" /><line stroke="#e1ed5e" stroke-width="0.3" x1="56.762969772571076" x2="54.21961505331055" y1="26.818313649435495" y2="22.513508569990535" /><path d="M 56.25429882871897 25.957352633546506 a86.0,86.0 0 0,1 42.265352541879196,-11.944610805530505" fill="none" id="id24" stroke="none" /><text fill="#e1ed5e" style="font-size:6.75px; font-family:Arial;" text-anchor="middle"><textPath startOffset="22.20632615414155" xlink:href="#id24">December</textPath></text><path d="M 89.94658935756843 81.56283822128135 l -11.446256377379866 -20.991530943711677 a44.90943655583531,44.90943655583531 0 0,0 0.6818855382595663,-0.3642396393466075 l 11.083225792591994 21.18544930956003" fill="#e8ff1a" stroke="none" /><path d="M 90.58718382345135 81.22770947309562 l -6.735323616088019 -13.432478584776195 a36.026512075125886,36.026512075125886 0 0,0 0.5567446817987711,-0.2731921974430499 l 6.503107667278822 13.546425942354075" fill="#ffa20f" stroke="none" /><path d="M 91.23893434514133 80.91482961587045 l -6.251709303876651 -13.618769902764589 a35.985151413470085,35.985151413470085 0 0,0 0.5651688764687173,-0.2535748005941888 l 6.016358308941159 13.724365033875307" fill="#ffa10e" stroke="none" /><path d="M 92.23578459929587 80.48803036053334 l -8.837996285757354 -22.210449646435286 a44.90427266920912,44.90427266920912 0 0,0 0.7206426596651616,-0.2795981560946283 l 8.454370461092516 22.359290506420468" fill="#e8ff1a" stroke="none" /><path d="M 92.91201910852362 80.23233633223022 l -4.250103281091251 -11.853109298718348 a33.59204423226451,33.59204423226451 0 0,0 0.5459794865130476,-0.19048152225616422 l 4.045441790514918 11.924511674146721" fill="#ff800b" stroke="none" /><path d="M 94.28887869178378 79.79150937346287 l -4.073700637523006 -14.414567071140405 a35.97914485985634,35.97914485985634 0 0,0 0.5974287503122553,-0.1632998454621286 l 3.824973997987028 14.48255345742883" fill="#ffa10e" stroke="none" /><path d="M 94.98787191387505 79.60689891045804 l -2.9454740443200427 -11.984400420397233 a33.3410563073904,33.3410563073904 0 0,0 0.558504469551826,-0.13217996338722135 l 2.7387458878056825 12.033326295925326" fill="#ff7c0b" stroke="none" /><path d="M 95.692805502759 79.44645832069477 l -1.3388961061082854 -6.389090842956728 a27.527872898770735,27.527872898770735 0 0,0 0.4646096586306485,-0.09319632670056983 l 1.2287200380105003 6.411191125734508" fill="#ff2803" stroke="none" /><path d="M 96.75951476605007 79.25152402106235 l -2.6150699640348978 -16.744009743837626 a37.94698950311019,37.94698950311019 0 0,0 0.6462390736028885,-0.09523884077617709 l 2.3264619100033603 16.786543068774773" fill="#ffbc11" stroke="none" /><path d="M 97.47563105711357 79.15227682838746 l -1.7973982038510323 -14.84397131751823 a35.9523952856561,35.9523952856561 0 0,0 0.6150141654851389,-0.0691040074358885 l 1.5416173348561755 14.872711278424717" fill="#ffa10e" stroke="none" /><path d="M 98.19473922651362 79.07773832637324 l -1.2863819009672737 -14.908659812220625 a35.96405412285249,35.96405412285249 0 0,0 0.61722847315143,-0.04790880879651208 l 1.0295632384535094 14.9285938832056" fill="#ffa10e" stroke="none" /><path d="M 99.27714615592234 79.0124445844662 l -1.0316644641772825 -29.953655624236323 a50.97141666358116,50.97141666358116 0 0,0 0.8771291594572446,-0.022653658405695064 l 0.5159086695251589 29.966976074784377" fill="#9fff22" stroke="none" /></svg>