<?xml version="1.0" encoding="utf-8" ?>
<svg baseProfile="full" height="200mm" version="1.1" viewBox="0,0,200,200" width="200mm" xmlns="http://www.w3.org/2000/svg" xmlns:ev="http://www.w3.org/2001/xml-events" xmlns:xlink="http://www.w3.org/1999/xlink"><defs /><rect fill="#1a1a1a" height="200" width="200" x="0" y="0" /><text alignment-baseline="middle" fill="#e1ed5e" style="dominant-baseline: central; font-size:9.0px; font-family:Arial;" text-anchor="middle" x="100.0" y="100.0">2022</text><line stroke="#e1ed5e" stroke-width="0.3" x1="100.0" x2="100.0" y1="15.0" y2="10.0" /><path d="M 100.0 14.0 a86.0,86.0 0 0,1 42.46469731375804,11.215312516191453" fill="none" id="id1" stroke="none" /><text fill="#e1ed5e" style="font-size:6.75px; font-family:Arial;" text-anchor="middle"><textPath startOffset="22.20632615414155" xlink:href="#id1">January</textPath></text><line stroke="#e1ed5e" stroke-width="0.3" x1="143.23703022742887" x2="145.7803849466894" y1="26.81831364943548" y2="22.513508569990506" /><path d="M 143.74570117128098 25.957352633546492 a86.0,86.0 0 0,1 28.547481713284135,27.462654790039103" fill="none" id="id2" stroke="none" /><text fill="#e1ed5e" style="font-size:6.75px; font-family:Arial;" text-anchor="middle"><textPath startOffset="19.985693538727396" xlink:href="#id2">February</textPath></text><path d="M 113.89432698308785 84.25364557470407 l 8.202557224641428 -9.29590712887278 a33.39741240631064,33.39741240631064 0 0,0 0.42778747523918714,0.3840718190792659 l -8.361355687476605 9.153336301024217" fill="#ff4e07" stroke="none" /><path d="M 115.19652480421416 85.50635884689758 l 5.51238034710585 -5.257416658064528 a28.617530243304138,28.617530243304138 0 0,0 0.33691374479254055,0.35939609231316677 l -5.602061413868853 5.161751148873306" fill="#ff0200" stroke="none" /><path d="M 115.4437574822437 85.77008943001954 l 5.511754091624209 -5.078541792547091 a28.494732810793433,28.494732810793433 0 0,0 0.32925848216599674,0.3635754397214776 l -5.598356214406242 4.982913565556063" fill="#ff0000" stroke="none" /><path d="M 115.68641384162765 86.03803664274999 l 10.443326967728455 -9.295263399481758 a34.98087979422717,34.98087979422717 0 0,0 0.3964635242967292,0.4532263439211353 l -10.601782355603033 9.114121499357674" fill="#ff6709" stroke="none" /><path d="M 115.9244219780498 86.31012108654704 l 13.666709282031588 -11.748972457164744 a39.022688378784785,39.022688378784785 0 0,0 0.43350376342714775,0.5131317217720803 l -13.866923658945854 11.511981785763558" fill="#ffa30f" stroke="none" /><path d="M 116.38621287248628 86.86637796730983 l 7.958998168580304 -6.379172205221484 a31.199974993662238,31.199974993662238 0 0,0 0.33227367109061534,0.42195381936547993 l -8.067625920264883 6.241225991902966" fill="#ff2c04" stroke="none" /><path d="M 116.60985879189232 87.15038557335679 l 11.475970841245974 -8.877968339706223 a35.509177391911436,35.509177391911436 0 0,0 0.3698434018314759,0.4866705642539584 l -11.627090183301563 8.679112999571231" fill="#ff6f0a" stroke="none" /><path d="M 116.82858285166822 87.43820079747576 l 8.271614495574275 -6.174397528891907 a31.32195675287302,31.32195675287302 0 0,0 0.3187939622533456,0.4348346062457027 l -8.376671070341247 6.031100478974711" fill="#ff2e04" stroke="none" /><path d="M 117.2510076193507 88.02491185347247 l 14.929054082200407 -10.363263556737992 a39.173439061874845,39.173439061874845 0 0,0 0.3797501804102135,0.55723653104093 l -15.105228728279354 10.104749002426656" fill="#ffa50f" stroke="none" /><path d="M 117.45458315368197 88.32363383020206 l 9.475677993655587 -6.338821442302939 a32.40040046300341,32.40040046300341 0 0,0 0.3061118317909773,0.4662293209432875 l -9.58338646080449 6.174774057381978" fill="#ff3f05" stroke="none" /><line stroke="#e1ed5e" stroke-width="0.3" x1="172.23445277983987" x2="176.4835382374775" y1="55.19839476539836" y2="52.563006222186495" /><path d="M 173.08426987136738 54.67131705675599 a86.0,86.0 0 0,1 12.851231095245387,41.99856678651699" fill="none" id="id3" stroke="none" /><text fill="#e1ed5e" style="font-size:6.75px; font-family:Arial;" text-anchor="middle"><textPath startOffset="22.20632615414155" xlink:href="#id3">March</textPath></text><path d="M 117.84615892207809 88.93136811851018 l 8.827512287715816 -5.475042801573168 a31.387543832342267,31.387543832342267 0 0,0 0.28082017222360867,0.4615945264429809 l -8.920448258225647 5.322280501923106" fill="#ff2f04" stroke="none" /><path d="M 118.03404312379186 89.2402003453031 l 9.296642049654823 -5.5467321015634905 a31.825608084810995,31.825608084810995 0 0,0 0.27664080285624676,0.47286880651511176 l -9.390742526981397 5.3858838826944835" fill="#ff3505" stroke="none" /><path d="M 118.73160827565052 90.50648371742162 l 7.9828439812127945 -4.045849037716686 a29.949563814196665,29.949563814196665 0 0,0 0.22909988300779185,0.4618513842793528 l -8.051303877173995 3.9078380649383835" fill="#ff1802" stroke="none" /><path d="M 119.04729006885535 91.15688171328212 l 11.104109193605256 -5.155323970638927 a33.24249183074071,33.24249183074071 0 0,0 0.23649291704178704,0.5210807943774937 l -11.191204427610389 4.96342116741937" fill="#ff4c07" stroke="none" /><path d="M 119.34039704204932 91.81776055985345 l 10.560815330712547 -4.467908261200014 a32.46704079873759,32.46704079873759 0 0,0 0.21332131053365805,0.5165744739518253 l -10.636158328132403 4.2854592167948855" fill="#ff4006" stroke="none" /><path d="M 119.7369772167798 92.82701384747503 l 14.01883627785052 -5.094848992886604 a35.915939690327775,35.915939690327775 0 0,0 0.20616932759474743,0.5828684521705841 l -14.104458686255077 4.8527829142894054" fill="#ff750a" stroke="none" /><path d="M 119.97218684219823 93.5106431181261 l 9.249042018964458 -3.0051959232473187 a30.725018293333562,30.725018293333562 0 0,0 0.1591036785962654,0.5044021401510463 l -9.299401181328928 2.845543616669853" fill="#ff2403" stroke="none" /><path d="M 120.08093135843002 93.85539295169968 l 15.281053300650036 -4.675882116254994 a36.98044002968694,36.98044002968694 0 0,0 0.18101767415553155,0.6103016085462751 l -15.35927687191727 4.412151120962188" fill="#ff850c" stroke="none" /><path d="M 120.45610955862082 95.25157060432595 l 8.717774185003595 -2.02363675684725 a29.949563814196665,29.949563814196665 0 0,0 0.11224756090561627,0.5031838060050016 l -8.75131613291125 1.8732747812922848" fill="#ff1802" stroke="none" /><path d="M 120.67395015179393 96.31383870115 l 11.667396268632515 -2.080294489829176 a32.85140332845497,32.85140332845497 0 0,0 0.09446833778351167,0.5575574771442733 l -11.70147646793625 1.8791512243690651" fill="#ff4606" stroke="none" /><path d="M 120.78858239683441 97.02765380044208 l 12.606196502256447 -1.8024307549738432 a33.73440013820746,33.73440013820746 0 0,0 0.07724213942994755,0.575543657665285 l -12.63535464074423 1.5851687552438938" fill="#ff5307" stroke="none" /><path d="M 120.87857604477298 97.74499172005257 l 14.936127799586426 -1.6131891267964384 a36.02299213886477,36.02299213886477 0 0,0 0.061278324796510984,0.6170643680757829 l -14.961683250065166 1.3558492280162204" fill="#ff760a" stroke="none" /><path d="M 120.98425023603335 99.18683210126433 l 9.233656246463815 -0.35781658925755305 a30.24058658253945,30.24058658253945 0 0,0 0.015679464121486183,0.5203250805547872 l -9.238447405040946 0.1988213612777668" fill="#ff1c02" stroke="none" /><line stroke="#e1ed5e" stroke-width="0.3" x1="184.98032266829074" x2="189.97916517819016" y1="98.17113171792111" y2="98.06355123074" /><path d="M 185.9800911702706 98.14961562048488 a86.0,86.0 0 0,1 -9.607161424134198,41.387399972396054" fill="none" id="id4" stroke="none" /><text fill="#e1ed5e" style="font-size:6.75px; font-family:Arial;" text-anchor="middle"><textPath startOffset="21.466115282336823" xlink:href="#id4">April</textPath></text><path d="M 120.99824983174949 100.27111621757518 l 9.20962863557077 0.11890894245732624 a30.210396242384007,30.210396242384007 0 0,0 -0.011189265154016624,0.5199211843339823 l -9.206217307731746 -0.2774199425814233" fill="#ff1c02" stroke="none" /><path d="M 120.9764740272857 100.99374915477107 l 15.164539187564264 0.7184118732505899 a36.181546837881825,36.181546837881825 0 0,0 -0.03482671867273176,0.6218544571679133 l -15.149926118004004 -0.9793380467539264" fill="#ff790b" stroke="none" /><path d="M 120.92983693683757 101.71520430193887 l 11.982672927955223 0.9819824309563249 a33.0228424256936,33.0228424256936 0 0,0 -0.05130397934365611,0.5661351369655983 l -11.963994352334492 -1.1880989564704938" fill="#ff4806" stroke="none" /><path d="M 120.8583938346157 102.4346265915055 l 30.19411458832286 3.524307521785252 a51.39910030380642,51.39910030380642 0 0,0 -0.11013723522576947,0.877902129741749 l -30.128975843850245 -4.043527405814396" fill="#b3ff20" stroke="none" /><path d="M 120.70491114924044 103.5080841355445 l 8.93221777277885 1.5134076759881983 a30.059520800466565,30.059520800466565 0 0,0 -0.0908277874461315,0.5094104673728976 l -8.904843542993529 -1.6669368940943141" fill="#ff1902" stroke="none" /><path d="M 120.5718875245553 104.21870165774334 l 9.853209427438077 2.0206094796118554 a31.05826022183021,31.05826022183021 0 0,0 -0.11190729120148449,0.5227936086377851 l -9.81696809751215 -2.1899169076658094" fill="#ff2904" stroke="none" /><path d="M 120.32669344350535 105.2749913415812 l 17.425144042060587 4.522008668214742 a39.002338939203675,39.002338939203675 0 0,0 -0.17423259252650974,0.6483842929064939 l -17.344723373192302 -4.821283894296784" fill="#ffa30f" stroke="none" /><path d="M 120.13307415673323 105.97154293290107 l 14.70838574944791 4.362560644874219 a36.34172567655828,36.34172567655828 0 0,0 -0.18304674369077706,0.5982073493951686 l -14.631112233251 -4.615094966821445" fill="#ff7b0b" stroke="none" /><path d="M 119.9155931802556 106.66101706037122 l 14.156772040435737 4.734907930064402 a35.92761024782767,35.92761024782767 0 0,0 -0.20121030416392757,0.584811328356004 l -14.073170905328578 -4.977891961509706" fill="#ff750a" stroke="none" /><path d="M 119.79798401119884 107.00284435728193 l 8.49774018645164 3.005778360093608 a30.013672493853,30.013672493853 0 0,0 -0.17647430433931421,0.48558149284395447 l -8.444741621107099 -3.151607649943694" fill="#ff1902" stroke="none" /><path d="M 119.26925614724726 108.34839909993367 l 7.575580711499608 3.2821179349153544 a29.256011219416912,29.256011219416912 0 0,0 -0.20417758425749777,0.4603665511926148 l -7.517962042510837 -3.412032822600657" fill="#ff0c01" stroke="none" /><path d="M 118.81262510543309 109.33194174019688 l 17.62572667971029 8.743184621065334 a40.67509894018031,40.67509894018031 0 0,0 -0.31653232263711356,0.6245483019922545 l -17.472615687286908 -9.045287134760283" fill="#ffbb11" stroke="none" /><line stroke="#e1ed5e" stroke-width="0.3" x1="174.80103733775053" x2="179.2010983576182" y1="140.37084112569926" y2="142.7455964860345" /><path d="M 175.68104954172406 140.8457921977663 a86.0,86.0 0 0,1 -30.038265399797805,32.042727171017184" fill="none" id="id5" stroke="none" /><text fill="#e1ed5e" style="font-size:6.75px; font-family:Arial;" text-anchor="middle"><textPath startOffset="22.206326154141568" xlink:href="#id5">May</textPath></text><path d="M 118.48025628344425 109.97397251340804 l 18.406611072776272 9.93422548308117 a41.91631342118274,41.91631342118274 0 0,0 -0.34815208997517016,0.6319971709154389 l -18.232882573349592 -10.249593172394412" fill="#ffcd13" stroke="none" /><path d="M 118.12598468904814 110.60418214915192 l 12.886674758608969 7.539046776296493 a35.92995688638638,35.92995688638638 0 0,0 -0.31690072146175885,0.5311438372653495 l -12.754993161448983 -7.759752707447946" fill="#ff750a" stroke="none" /><path d="M 117.75023020441432 111.22182372390056 l 13.422684545639138 8.48591810573966 a36.88015322687599,36.88015322687599 0 0,0 -0.3438549828443573,0.5336705693921305 l -13.27462469941773 -8.715710275053244" fill="#ff830c" stroke="none" /><path d="M 117.35343817320211 111.8261652097733 l 12.33542720191383 8.406449405988008 a35.92753013291723,35.92753013291723 0 0,0 -0.3526699271192654,0.5080473333813772 l -12.18889636763243 -8.617538001556404" fill="#ff750a" stroke="none" /><path d="M 116.93607887273984 112.41649034213515 l 12.03376925003769 8.822418742574254 a35.921349631735,35.921349631735 0 0,0 -0.3698851020461475,0.4955215399503067 l -11.880122881296451 -9.028253162033876" fill="#ff750a" stroke="none" /><path d="M 116.498646956653 112.99209946851258 l 11.777727392770123 9.274542706557591 a35.99106417017045,35.99106417017045 0 0,0 -0.3874730921409463,0.4834322591573425 l -11.616336388574323 -9.475902799293184" fill="#ff760a" stroke="none" /><path d="M 116.0416608686014 113.55231037782055 l 11.4026242338434 9.633161055110683 a35.92707711951452,35.92707711951452 0 0,0 -0.4031659444019946,0.4689730761261341 l -11.235115779870625 -9.828011230398346" fill="#ff750a" stroke="none" /><path d="M 115.56566222782051 114.09645910891815 l 11.060328613594939 10.016372432525092 a35.92174874965249,35.92174874965249 0 0,0 -0.4190076851096457,0.4547500871636588 l -10.886274520489572 -10.205273774490085" fill="#ff750a" stroke="none" /><path d="M 115.07121518719521 114.62390073753431 l 6.439527541477717 6.248402029532301 a29.972738872836622,29.972738872836622 0 0,0 -0.3624694299771066,0.36717961887964184 l -6.331017486445075 -6.358322142392606" fill="#ff1802" stroke="none" /><path d="M 114.29624159901734 115.38237550388516 l 10.171013815814746 10.943740191185649 a35.94038056455278,35.94038056455278 0 0,0 -0.4567858935719764,0.417263083488998 l -9.981128372775904 -11.117196041261229" fill="#ff750a" stroke="none" /><path d="M 113.75828350139079 115.86535959552629 l 9.799895605776198 11.300746039179984 a35.95810198274346,35.95810198274346 0 0,0 -0.4711102501055264,0.40149037565853507 l -9.603919879093626 -11.467760805061467" fill="#ff750a" stroke="none" /><path d="M 113.20401910651253 116.32954008644616 l 18.76067692884809 23.201513379164226 a50.837446638614196,50.837446638614196 0 0,0 -0.6851980171638683,0.5443627451237352 l -18.35852141896687 -23.52101003829309" fill="#baff1f" stroke="none" /><path d="M 112.63410532772338 116.77436683061366 l 10.323460892997788 13.706512292615502 a38.15932178254358,38.15932178254358 0 0,0 -0.5280796394591155,0.39066069267069964 l -10.085996283120108 -13.88218293402597" fill="#ff960d" stroke="none" /><path d="M 112.04921762599082 117.19931262002967 l 8.738157346246902 12.473033900302784 a36.229312804124525,36.229312804124525 0 0,0 -0.5138405425501197,0.35342421061419227 l -8.5221599190739 -12.62159890028207" fill="#ff790b" stroke="none" /><path d="M 111.45004920935366 117.60387380957326 l 8.15912479603637 12.544243319814706 a35.964269374213075,35.964269374213075 0 0,0 -0.5218555883051893,0.33307292719896325 l -7.94198740568425 -12.682830675837478" fill="#ff750a" stroke="none" /><line stroke="#e1ed5e" stroke-width="0.3" x1="143.8653032363475" x2="146.44561519142675" y1="172.8068346515853" y2="177.08958963109032" /><path d="M 144.38136562736335 173.6633856474863 a86.0,86.0 0 0,1 -40.68145358897372,12.25698825130547" fill="none" id="id6" stroke="none" /><text fill="#e1ed5e" style="font-size:6.75px; font-family:Arial;" text-anchor="middle"><textPath startOffset="21.466115282336833" xlink:href="#id6">June</textPath></text><path d="M 110.8373102113329 117.98757091392108 l 8.082419745021472 13.415053688102242 a36.66171045541893,36.66171045541893 0 0,0 -0.5433477236562407,0.32101941241407633 l -7.85030415033685 -13.552191672810068" fill="#ff800b" stroke="none" /><path d="M 110.21172684928248 118.3499491758327 l 7.259287522679001 13.044567198081264 a35.928428876548956,35.928428876548956 0 0,0 -0.5429935109912549,0.29608335641290495 l -7.033671199819097 -13.16759120625394" fill="#ff750a" stroke="none" /><path d="M 109.2508944713604 118.85261126421891 l 6.599421015494734 13.449112338187001 a35.98102067366998,35.98102067366998 0 0,0 -0.5583694680938466,0.2680512767417423 l -6.366938879400655 -13.560717891428304" fill="#ff760a" stroke="none" /><path d="M 108.59647513512805 119.15986991738527 l 3.670437179112789 8.180690083585995 a29.966370465773522,29.966370465773522 0 0,0 -0.4724402722268624,0.20710393160447163 l -3.529076232228173 -8.242658568484922" fill="#ff1802" stroke="none" /><path d="M 107.59598834532513 119.57807347666477 l 10.797253886515351 27.829088240570993 a50.850273764093984,50.850273764093984 0 0,0 -0.8187615162920329,0.30958554682363304 l -10.316622149463043 -28.01082203750126" fill="#baff1f" stroke="none" /><path d="M 106.2309692047433 120.05430185196036 l 4.426002923714722 14.24503888773283 a35.91679036501324,35.91679036501324 0 0,0 -0.5919857134816447,0.1783604393391637 l -4.1801422357928315 -14.31911469617772" fill="#ff750a" stroke="none" /><path d="M 105.18746579009965 120.34920634021253 l 9.580875523531624 37.58351781718282 a59.78548681287765,59.78548681287765 0 0,0 -0.9994047031280365,0.2456293606332495 l -8.932517535660375 -37.7428684361301" fill="#4fff2b" stroke="none" /><path d="M 103.41894727170886 120.7198165907248 l 1.9824597754849926 12.014283837143758 a33.17674681024738,33.17674681024738 0 0,0 -0.5642640058457566,0.08812643303771944 l -1.7753599060307188 -12.046628577528583" fill="#ff4b06" stroke="none" /><path d="M 102.70371172650421 120.8252237178851 l 4.998509144601402 38.50080249746501 a59.82392157700548,59.82392157700548 0 0,0 -1.0223411856910518,0.12379128008118302 l -4.33504053585897 -38.581139306271545" fill="#4eff2b" stroke="none" /><path d="M 101.62511606390274 120.93702456842531 l 0.9559841180653733 12.316328298971948 a33.35337396835579,33.35337396835579 0 0,0 -0.572784224126463,0.03950255364573562 l -0.7438371331599799 -12.33095919713397" fill="#ff4d07" stroke="none" /><line stroke="#e1ed5e" stroke-width="0.3" x1="102.19456741930631" x2="102.32365962044197" y1="184.97166512339345" y2="189.96999836594603" /><path d="M 102.22038585953345 185.97133177190398 a86.0,86.0 0 0,1 -42.740103519485714,-10.115201625700543" fill="none" id="id7" stroke="none" /><text fill="#e1ed5e" style="font-size:6.75px; font-family:Arial;" text-anchor="middle"><textPath startOffset="22.20632615414155" xlink:href="#id7">July</textPath></text><path d="M 100.18074693466247 120.99922214144158 l 0.33469647399730246 38.885116478195094 a59.886556870626976,59.886556870626976 0 0,0 -1.0308868173194892,0.0 l 0.3346964739972757 -38.885116478195094" fill="#4dff2c" stroke="none" /><path d="M 99.09653310690486 120.98055641714683 l -0.6451303533102521 14.981394312823287 a35.995278214459915,35.995278214459915 0 0,0 -0.6187964245807636,-0.031984707006196496 l 0.9029148463045047 -14.96806979905489" fill="#ff760a" stroke="none" /><path d="M 97.65516085044442 120.86867818915974 l -1.6795474352513986 14.94769265360187 a36.0417550589618,36.0417550589618 0 0,0 -0.6159236912266783,-0.07457978142369892 l 1.9365985495294664 -14.916567343452822" fill="#ff770a" stroke="none" /><path d="M 97.2962882734958 120.8252237178851 l -2.321709274268331 17.88286619855056 a39.03294866153303,39.03294866153303 0 0,0 -0.6655515674936775,-0.09223938273492487 l 2.6291894329488397 -17.84025225032303" fill="#ffa30f" stroke="none" /><path d="M 95.16358092515715 120.4354850818985 l -11.048471847856534 46.68348175183394 a68.97307785254861,68.97307785254861 0 0,0 -1.1529891629184763,-0.28337668415839734 l 11.850414295518222 -46.486383809361506" fill="#38ff82" stroke="none" /><path d="M 94.46302465271185 120.25689768951611 l -3.242745268597929 11.863509410660956 a33.298709380006315,33.298709380006315 0 0,0 -0.5515991969355587,-0.15588744282944372 l 3.446475633638102 -11.80593317449299" fill="#ff4d07" stroke="none" /><path d="M 92.7421414339146 119.70592522655815 l -15.498128299463295 42.07921036763214 a65.84252363493903,65.84252363493903 0 0,0 -1.0601579991079897,-0.4008610411486817 l 16.220156519331567 -41.80620107637683" fill="#34ff5a" stroke="none" /><path d="M 91.7346041902142 119.30500536409082 l -5.922960766843995 13.833915762370019 a36.04854443346342,36.04854443346342 0 0,0 -0.5683298938381635,-0.24913912378264294 l 6.160211335339902 -13.729912085292924" fill="#ff770a" stroke="none" /><path d="M 90.7491055286396 118.85261126421891 l -6.613772076039405 13.478358695554457 a36.013598309526834,36.013598309526834 0 0,0 -0.5541739792383971,-0.2778743376532258 l 6.844799962960562 -13.36251651699193" fill="#ff760a" stroke="none" /><path d="M 90.42595943632237 118.69057910512821 l -7.452190853280127 14.548273711955318 a37.34586848447283,37.34586848447283 0 0,0 -0.5696295918393183,-0.2980032800932048 l 7.701511347645941 -14.417841012917396" fill="#ff8a0c" stroke="none" /><line stroke="#e1ed5e" stroke-width="0.3" x1="58.666819895761336" x2="56.23545636021788" y1="174.27360380694188" y2="178.64263932499728" /><path d="M 58.180547188652646 175.14741091055294 a86.0,86.0 0 0,1 -31.652253787137756,-30.449443065178592" fill="none" id="id8" stroke="none" /><text fill="#e1ed5e" style="font-size:6.75px; font-family:Arial;" text-anchor="middle"><textPath startOffset="22.20632615414155" xlink:href="#id8">August</textPath></text><path d="M 89.7882731507175 118.34994917583269 l -6.692219323248881 12.025574740453507 a34.762276240095574,34.762276240095574 0 0,0 -0.5203602095571268,-0.2954741075537859 l 6.898228299727215 -11.908597467105087" fill="#ff6309" stroke="none" /><path d="M 88.8546689885994 117.79835938074946 l -7.941454753686013 12.68198006568694 a35.96326575288039,35.96326575288039 0 0,0 -0.5218410253678716,-0.3330636324433459 l 8.15857758110081 -12.54340200441979" fill="#ff750a" stroke="none" /><path d="M 88.24862548938628 117.40417183066458 l -8.4126741976394 12.459446948854657 a36.033659083102535,36.033659083102535 0 0,0 -0.5110655847499022,-0.3515155693357828 l 8.625896667012194 -12.312790590153774" fill="#ff760a" stroke="none" /><path d="M 87.36589467227662 116.77436683061367 l -9.06575292222319 12.036646930541506 a36.068800396093664,36.068800396093664 0 0,0 -0.4927191729210485,-0.3777960511724808 l 9.271600823637725 -11.878811537541658" fill="#ff770b" stroke="none" /><path d="M 86.79598089348748 116.32954008644616 l -7.835211475455453 9.68988296988507 a33.46131497215192,33.46131497215192 0 0,0 -0.4447644069953545,-0.36601082755050457 l 8.000846010995495 -9.553577023477386" fill="#ff4f07" stroke="none" /><path d="M 86.24171649860922 115.8653595955263 l -15.683991911085487 18.085989544956195 a44.93931118656633,44.93931118656633 0 0,0 -0.5800544739156824,-0.511830631453351 l 15.992988737907757 -17.813335771730554" fill="#fff717" stroke="none" /><path d="M 85.70375840098266 115.38237550388516 l -10.209796785627828 10.985469634598367 a35.99734954905363,35.99734954905363 0 0,0 -0.45024827540210827,-0.42573784747306714 l 10.397380895420754 -10.80809715037937" fill="#ff760a" stroke="none" /><path d="M 85.18274418774928 114.88116024355367 l -10.59127895185823 10.636957427465681 a36.010664647169776,36.010664647169776 0 0,0 -0.4354878992919068,-0.4411469427885161 l 10.77280747620567 -10.4530699906965" fill="#ff760a" stroke="none" /><path d="M 84.43433777217949 114.09645910891817 l -17.791778384841074 16.11245784510148 a45.00330552039594,45.00330552039594 0 0,0 -0.5150545818285356,-0.5786692827404983 l 18.066491816317946 -15.80381439262012" fill="#fff717" stroke="none" /><path d="M 83.72743513129214 113.27417163493432 l -11.616729184181988 9.476223218130393 a35.99157107905836,35.99157107905836 0 0,0 -0.3874785494275903,-0.4834390679615261 l 11.778125645664439 -9.274856316590608" fill="#ff760a" stroke="none" /><path d="M 83.28015986056508 112.70617746262583 l -11.92968121638502 9.065914825969447 a35.98359454724741,35.98359454724741 0 0,0 -0.37052604307878206,-0.4963801852046032 l 12.083968526158888 -8.859221761255535" fill="#ff760a" stroke="none" /><path d="M 82.85270091963577 112.12312394758628 l -51.44189724109269 36.36937184275885 a84.0,84.0 0 0,0 -0.8245563713514645,-1.1878349512519497 l 52.06031451960629 -35.47849562931989" fill="#4dd2ff" stroke="none" /><path d="M 82.24976979558568 111.22182372390057 l -12.652639467133634 7.9990900459944605 a35.96912579442084,35.96912579442084 0 0,0 -0.32635192114612366,-0.526183209601447 l 12.788456027947714 -7.78011050502775" fill="#ff760a" stroke="none" /><line stroke="#e1ed5e" stroke-width="0.3" x1="26.63291911575756" x2="22.317208475507996" y1="142.92168965132927" y2="145.44649492493687" /><path d="M 25.769776987707644 143.4266507060508 a86.0,86.0 0 0,1 -11.730757126820373,-40.83630448921669" fill="none" id="id9" stroke="none" /><text fill="#e1ed5e" style="font-size:6.75px; font-family:Arial;" text-anchor="middle"><textPath startOffset="21.46611528233685" xlink:href="#id9">September</textPath></text><path d="M 81.51974371655577 109.97397251340807 l -26.331093137404682 14.211144865763494 a50.92128179417446,50.92128179417446 0 0,0 -0.40966775414759754,-0.7749370035231602 l 26.571813399777167 -13.755792847154208" fill="#b9ff1f" stroke="none" /><path d="M 81.18737489456691 109.33194174019688 l -13.670613030792277 6.781263308079565 a36.260117715508414,36.260117715508414 0 0,0 -0.27254959505523524,-0.5615328923372459 l 13.78531588246223 -6.544941459777033" fill="#ff7a0b" stroke="none" /><path d="M 80.87730276802145 108.67885076344099 l -13.66852605618415 6.2034710040510905 a36.010384973300575,36.010384973300575 0 0,0 -0.2513163314331405,-0.5666519818078859 l 13.773283472348572 -5.967270685750509" fill="#ff760a" stroke="none" /><path d="M 80.32549172779594 107.34259656027581 l -13.99717689441837 5.223796269598703 a35.940181005594035,35.940181005594035 0 0,0 -0.21132097187008192,-0.5814645558404513 l 14.085022127293676 -4.982083916752135" fill="#ff750a" stroke="none" /><path d="M 80.0844068197444 106.66101706037122 l -14.21104651012768 4.753060699368762 a35.98483996994616,35.98483996994616 0 0,0 -0.19141835574205637,-0.5891251221804856 l 14.290757116885986 -4.507736677210472" fill="#ff760a" stroke="none" /><path d="M 79.76711848015287 105.62410040840567 l -14.499237756979227 4.030328992467404 a36.04896831417142,36.04896831417142 0 0,0 -0.16103919349746784,-0.5992867470545215 l 14.56646502681847 -3.780151312237344" fill="#ff770a" stroke="none" /><path d="M 79.58551787078972 104.9243191809786 l -23.21735152606325 5.600418797189386 a44.883259881948774,44.883259881948774 0 0,0 -0.17470153628296717,-0.7526096459430236 l 23.310313628276774 -5.199940493897788" fill="#fff617" stroke="none" /><path d="M 79.4281124754447 104.21870165774334 l -14.900047692410903 3.055570658035063 a36.21012601139005,36.21012601139005 0 0,0 -0.11995909017009379,-0.6116688163657242 l 14.950436715556663 -2.798638114601384" fill="#ff790b" stroke="none" /><path d="M 79.23777060512086 103.15116336523772 l -17.323465241387474 2.629248911058332 a38.52185486202478,38.52185486202478 0 0,0 -0.09385748860077797,-0.6564390566709233 l 17.366156781004854 -2.330664382407008" fill="#ff9c0e" stroke="none" /><path d="M 79.1416061653843 102.43462659150553 l -23.748194764970147 2.7719289861665444 a44.90941958516153,44.90941958516153 0 0,0 -0.08301334805807409,-0.7686005038536503 l 23.792390414529272 -2.362732160428112" fill="#fff617" stroke="none" /><path d="M 79.07016306316243 101.71520430193888 l -15.000915244609995 1.229327989425954 a36.051202791855495,36.051202791855495 0 0,0 -0.04536175438336874,-0.6189250984793756 l 15.019853557657699 -0.9709297544498178" fill="#ff770a" stroke="none" /><path d="M 79.0095281055655 100.63252640178507 l -14.359046887713731 0.43269519173396565 a35.36556482191045,35.36556482191045 0 0,0 -0.013098626014005951,-0.6086416808082284 l 14.364367576412745 -0.1854636951356084" fill="#ff6c0a" stroke="none" /><line stroke="#e1ed5e" stroke-width="0.3" x1="15.007084014347285" x2="10.007500721073583" y1="101.09737516637583" y2="101.16192664675087" /><path d="M 14.007167355692545 101.11028546245083 a86.0,86.0 0 0,1 10.666146001902534,-42.60595125391555" fill="none" id="id10" stroke="none" /><text fill="#e1ed5e" style="font-size:6.75px; font-family:Arial;" text-anchor="middle"><textPath startOffset="22.20632615414155" xlink:href="#id10">October</textPath></text><path d="M 79.00019446554 99.90962569577889 l -15.92826986085134 -0.06854855411677489 a36.92841736219819,36.92841736219819 0 0,0 0.008206888618257543,-0.6356325677926091 l 15.924729965115368 0.342717379969856" fill="#ff840c" stroke="none" /><path d="M 79.01574976396665 99.18683210126434 l -23.874280368423584 -0.9251604504639506 a44.892199249319816,44.892199249319816 0 0,0 0.036568740362795026,-0.7719083118188702 l 23.854818019827288 1.3359798689058298" fill="#fff617" stroke="none" /><path d="M 79.05617556472873 98.46500227214037 l -25.305455870398134 -1.8546668677233993 a46.37333021104834,46.37333021104834 0 0,0 0.06519983388048156,-0.7956031184651807 l 25.269781552698156 2.2899839033963585" fill="#f4ff19" stroke="none" /><path d="M 79.16333360222342 97.38593545837743 l -14.919467839377324 -1.8717222378218847 a36.036417949291355,36.036417949291355 0 0,0 0.08251310260123897,-0.6148184556629988 l 14.88503873771825 2.1282590355495428" fill="#ff770a" stroke="none" /><path d="M 79.26566170972629 96.67025291283419 l -14.817761201061781 -2.3795983506596246 a36.00761591066862,36.00761591066862 0 0,0 0.10354442361619416,-0.6111250494965431 l 14.774604915925364 2.634309188471996" fill="#ff760a" stroke="none" /><path d="M 79.46518482838121 95.60439243477599 l -13.539646328920176 -2.8982472613688164 a34.84636630673454,34.84636630673454 0 0,0 0.13060022004395644,-0.585455178327367 l 13.487751721874181 3.1308806092461423" fill="#ff6409" stroke="none" /><path d="M 79.62865764111835 94.90015583598534 l -18.712778604623924 -4.68463261173765 a40.2902531298225,40.2902531298225 0 0,0 0.17421441781246252,-0.6713192183650463 l 18.629367854941155 5.006048255651561" fill="#ffb510" stroke="none" /><path d="M 79.81627453868168 94.20196356495316 l -15.269927514369135 -4.386484361299561 a36.8874771863255,36.8874771863255 0 0,0 0.18056262500860504,-0.6087674090398987 l 15.192158992248823 4.648681157085998" fill="#ff830c" stroke="none" /><path d="M 80.14247586403 93.16781622104843 l -14.680270457344356 -5.050896828956098 a36.52488001491594,36.52488001491594 0 0,0 0.20966484569473684,-0.5927507525507899 l 14.59115253083981 5.302845207933499" fill="#ff7e0b" stroke="none" /><path d="M 80.38941819471856 92.48833698450439 l -22.391087389158486 -8.576711526864276 a44.977505605962826,44.977505605962826 0 0,0 0.2831579214924135,-0.7206060246872653 l 22.240135917784382 8.960866556447304" fill="#fff717" stroke="none" /><path d="M 80.52162464483688 92.15188598940014 l -14.373733838486558 -5.791381461008653 a36.49659071172005,36.49659071172005 0 0,0 0.23979704860990114,-0.5806875737401501 l 14.271915102990457 6.0379436052021145" fill="#ff7d0b" stroke="none" /><path d="M 80.95270993114464 91.15688171328213 l -13.528963330058367 -6.281115192338975 a35.915939690327775,35.915939690327775 0 0,0 0.2651653409266258,-0.5585058335844653 l 13.41883979528999 6.513063441563972" fill="#ff750a" stroke="none" /><path d="M 81.26839172434947 90.50648371742162 l -26.646242077285574 -13.504795173357879 a50.873093403858505,50.873093403858505 0 0,0 0.40260134427074806,-0.7776976516969704 l 26.409831299854712 13.961465547315186" fill="#b9ff1f" stroke="none" /><path d="M 81.6062741919709 89.86733742301443 l -13.081362023652018 -7.206208726630012 a35.93490798785194,35.93490798785194 0 0,0 0.30312354099559846,-0.5392229559975418 l 12.95538084136399 7.430315192562338" fill="#ff750a" stroke="none" /><line stroke="#e1ed5e" stroke-width="0.3" x1="26.266209847984243" x2="21.928928074336255" y1="57.711370442889674" y2="55.22380399835377" /><path d="M 25.398753493254645 57.213857153982495 a86.0,86.0 0 0,1 29.58750427330803,-30.492523968695096" fill="none" id="id11" stroke="none" /><text fill="#e1ed5e" style="font-size:6.75px; font-family:Arial;" text-anchor="middle"><textPath startOffset="21.46611528233685" xlink:href="#id11">November</textPath></text><path d="M 81.96595687620814 89.24020034530311 l -12.854741821563252 -7.669630468522014 a35.96888836295897,35.96888836295897 0 0,0 0.32180885126698705,-0.5289691375427984 l 12.72081717201005 7.889767379271887" fill="#ff760a" stroke="none" /><path d="M 82.54541684631803 88.32363383020206 l -19.8763049996252 -13.29639403214579 a44.913627802912046,44.913627802912046 0 0,0 0.4353959894634828,-0.6388898894944143 l 19.64448454449298 13.63656194491062" fill="#fff617" stroke="none" /><path d="M 83.17141714833178 87.43820079747576 l -12.3642387073407 -9.229362050429284 a36.42904801567505,36.42904801567505 0 0,0 0.3794242512266342,-0.49927783900344563 l 12.203538515889957 9.440824665313757" fill="#ff7c0b" stroke="none" /><path d="M 83.6137871275137 86.86637796730984 l -11.657274785526084 -9.343357257452649 a35.93955756592729,35.93955756592729 0 0,0 0.3910591951391276,-0.4793923338808502 l 11.494717098310565 9.54263376094158" fill="#ff750a" stroke="none" /><path d="M 84.31358615837235 86.03803664274999 l -17.844929039957446 -15.88318706136853 a44.88968655440128,44.88968655440128 0 0,0 0.5187032339608519,-0.5727650663140529 l 17.56888216538055 16.18800491495214" fill="#fff617" stroke="none" /><path d="M 85.05521093208273 85.24692304244772 l -8.51925080273235 -8.40996565038272 a32.971013176856545,32.971013176856545 0 0,0 0.40219015276773473,-0.40046302043614046 l 8.373224849797301 8.55536452146897" fill="#ff4706" stroke="none" /><path d="M 85.83668400450813 84.49514656593479 l -26.241656088988872 -28.727243793503135 a59.908598667442796,59.908598667442796 0 0,0 0.7673692757173687,-0.6889517124490905 l 25.743275825675532 29.174694514721505" fill="#4dff2c" stroke="none" /><path d="M 86.37877921826538 84.01681056812374 l -9.567456947042643 -11.226488375473597 a35.75026351215999,35.75026351215999 0 0,0 0.4718055278152793,-0.39512356114469305 l 9.372793882268253 11.389513094012102" fill="#ff720a" stroke="none" /><path d="M 86.93701828274178 83.55741782278169 l -8.196799958545636 -10.317442053106873 a34.17714461025726,34.17714461025726 0 0,0 0.46377969388246754,-0.36198740742687163 l 8.017987709503744 10.457007849756966" fill="#ff5a08" stroke="none" /><line stroke="#e1ed5e" stroke-width="0.3" x1="56.762969772571076" x2="54.21961505331055" y1="26.818313649435495" y2="22.513508569990535" /><path d="M 56.25429882871897 25.957352633546506 a86.0,86.0 0 0,1 42.265352541879196,-11.944610805530505" fill="none" id="id12" stroke="none" /><text fill="#e1ed5e" style="font-size:6.75px; font-family:Arial;" text-anchor="middle"><textPath startOffset="22.20632615414155" xlink:href="#id12">December</textPath></text><path d="M 89.94658935756843 81.56283822128135 l -15.333858588031674 -28.121086617740684 a53.03002859443349,53.03002859443349 0 0,0 0.8051851095276538,-0.4301020001834549 l 14.847528431975714 28.38086734442589" fill="#9eff22" stroke="none" /><path d="M 90.91171255644093 81.06846463323043 l -6.758464378310388 -14.078351746424252 a36.61655623525677,36.61655623525677 0 0,0 0.5705588108261522,-0.2678850120412768 l 6.515127356184628 14.192601741105536" fill="#ff7f0b" stroke="none" /><path d="M 91.90106846888425 80.62456947434976 l -5.771422772085646 -13.807228833220625 a35.96492194657452,35.96492194657452 0 0,0 0.5732399764053978,-0.23383897957438615 l 5.5328989260918675 13.904528698978588" fill="#ff750a" stroke="none" /><path d="M 92.57280143429618 80.3572730644239 l -4.544315891707372 -12.018361348515835 a33.848806031189184,33.848806031189184 0 0,0 0.5467672979654962,-0.20137901019973442 l 4.336766267969306 12.094803626521893" fill="#ff5507" stroke="none" /><path d="M 94.63758080256005 79.69619591428918 l -3.820131783830199 -14.46421931308811 a35.96018205714559,35.96018205714559 0 0,0 0.5998348636136797,-0.1529112626154908 l 3.57058803153152 14.527833571872465" fill="#ff750a" stroke="none" /><path d="M 97.11714578562143 79.19881850522333 l -4.120980077151533 -29.73485585696396 a51.01906277069129,51.01906277069129 0 0,0 0.8709325032679007,-0.11307203485438755 l 3.608532845375774 29.801386214982486" fill="#b7ff1f" stroke="none" /><path d="M 98.19473922651362 79.07773832637324 l -1.3361109691843271 -15.485000135626363 a36.542535884543526,36.542535884543526 0 0,0 0.627156592303259,-0.04867942192089605 l 1.069364187518734 15.50570481973572" fill="#ff7e0b" stroke="none" /><path d="M 99.63851952072746 79.00311137660856 l -0.5523895068203533 -32.0859952791319 a53.090749870012694,53.090749870012694 0 0,0 0.9138699860928811,-0.007865967489352728 l 7.859966822109877e-15 32.090749870012694" fill="#9eff22" stroke="none" /></svg>