<?xml version="1.0" encoding="utf-8" ?>
<svg baseProfile="full" height="200mm" version="1.1" viewBox="0,0,200,200" width="200mm" xmlns="http://www.w3.org/2000/svg" xmlns:ev="http://www.w3.org/2001/xml-events" xmlns:xlink="http://www.w3.org/1999/xlink"><defs /><rect fill="#1a1a1a" height="200" width="200" x="0" y="0" /><text alignment-baseline="middle" fill="#e1ed5e" style="dominant-baseline: central; font-size:9.0px; font-family:Arial;" text-anchor="middle" x="100.0" y="100.0">2024</text><line stroke="#e1ed5e" stroke-width="0.3" x1="100.0" x2="100.0" y1="15.0" y2="10.0" /><path d="M 100.0 14.0 a86.0,86.0 0 0,1 42.35913384403234,11.155469271406648" fill="none" id="id25" stroke="none" /><text fill="#e1ed5e" style="font-size:6.75px; font-family:Arial;" text-anchor="middle"><textPath startOffset="22.145653131862478" xlink:href="#id25">January</textPath></text><path d="M 100.0 79.0 l 0.0 -28.7887338815312 a49.7887338815312,49.7887338815312 0 0,0 0.854689823879736,0.007336484201248115 l -0.49419689903088126 28.78449179552439" fill="#bfff1e" stroke="none" /><path d="M 100.72087961077811 79.0123766808444 l 0.5402582164131597 -15.729028497448112 a36.738304114927274,36.738304114927274 0 0,0 0.6301043210194809,0.027059390716602467 l -0.8101882980334768 15.717436538305678" fill="#ff8e0d" stroke="none" /><path d="M 101.80034050326958 79.07731436759882 l 3.067611953498075 -35.65030083402265 a56.78203729042772,56.78203729042772 0 0,0 0.9704332369249041,0.09190103649242067 l -3.679144753807992 35.59238804202504" fill="#6bff28" stroke="none" /><path d="M 102.51750503828377 79.15144685158666 l 1.906481848913036 -15.78840461056049 a36.903093824379035,36.903093824379035 0 0,0 0.6282702134790699,0.08134215754273769 l -2.1772298842828977 15.753350856817354" fill="#ff900d" stroke="none" /><path d="M 103.23170211078529 79.25015418208739 l 3.9309712552305975 -25.23965534708912 a46.54393738344372,46.54393738344372 0 0,0 0.7884155058942921,0.12973347146761963 l -4.36366426417796 25.16845587712583" fill="#e9ff1a" stroke="none" /><path d="M 104.29559338865022 79.4440306129975 l 7.326337913666135 -35.05917908107202 a56.816494315662716,56.816494315662716 0 0,0 0.952995459710559,0.20770092488415634 l -7.927095789995828 34.92824669805414" fill="#6bff28" stroke="none" /><path d="M 104.9986988182912 79.60360301121754 l 3.7028088988063863 -15.108723893765077 a36.5558455713313,36.5558455713313 0 0,0 0.6082104259187172,0.15460471188016886 l -3.961624617950498 15.04293395004964" fill="#ff8b0c" stroke="none" /><path d="M 105.69591212413111 79.78721728523813 l 6.924169588126016 -24.57143514767676 a46.52840672078095,46.52840672078095 0 0,0 0.7669210536302281,0.2232395414845656 l -7.344950654137849 24.448951911889676" fill="#e9ff1a" stroke="none" /><path d="M 106.72888874123014 80.10723608172694 l 8.255420649761717 -24.405684258902447 a46.764110585264746,46.764110585264746 0 0,0 0.7582337966538623,0.2637530741549775 l -8.673160218460598 24.260372752178878" fill="#e6ff1a" stroke="none" /><path d="M 107.74402155503746 80.48000691201159 l 9.424087197079627 -23.754856006041212 a46.55595044927722,46.55595044927722 0 0,0 0.7403405694083367,0.30109006443213365 l -9.830482227678404 23.589578685029785" fill="#e9ff1a" stroke="none" /><path d="M 108.4095320186766 80.7573450057729 l 6.213187853303608 -14.216989721891643 a36.51536335548775,36.51536335548775 0 0,0 0.5722246033403633,0.25594878667102927 l -6.456325859499603 14.108237184310761" fill="#ff8b0c" stroke="none" /><path d="M 109.06512990194946 81.05736502329252 l 15.825151945228564 -33.06848109092529 a57.6600583162446,57.6600583162446 0 0,0 0.8891723291746346,0.43493874319294495 l -16.390484523665265 32.79194859763513" fill="#61ff29" stroke="none" /><path d="M 109.71004243097381 81.37971332152246 l 11.81916347968741 -22.66480438742022 a46.56141590913147,46.56141590913147 0 0,0 0.7055411092904406,0.37566090093613747 l -12.20649340476441 22.45857301876151" fill="#e8ff1a" stroke="none" /><path d="M 110.34350942703115 81.72400993836675 l 3.1866591468299097 -5.630521372666483 a27.469742455935073,27.469742455935073 0 0,0 0.40839335717514075,0.2357860147003225 l -3.282844971865448 5.5749884606899895" fill="#ff0000" stroke="none" /><line stroke="#e1ed5e" stroke-width="0.3" x1="143.13028292997686" x2="145.6673583964461" y1="26.7553504044142" y2="22.446841604673864" /><path d="M 143.63769802327073 25.89364864446614 a86.0,86.0 0 0,1 29.32050498858742,28.57503671076993" fill="none" id="id26" stroke="none" /><text fill="#e1ed5e" style="font-size:6.75px; font-family:Arial;" text-anchor="middle"><textPath startOffset="20.669276256404974" xlink:href="#id26">February</textPath></text><path d="M 111.27062007382361 82.28071324371311 l 19.167853004824384 -30.13504861934487 a56.71453127376635,56.71453127376635 0 0,0 0.8169981223868387,0.5295683122398649 l -19.682336759468228 29.801566465401113" fill="#6cff28" stroke="none" /><path d="M 111.8722381534696 82.67804972795209 l 8.706596495087846 -12.703184486121796 a36.4005103362428,36.4005103362428 0 0,0 0.5123890256749349,0.3576873340582273 l -8.92338061193654 12.551852336258442" fill="#ff890c" stroke="none" /><path d="M 113.03279911837588 83.53348406188908 l 22.161088405317894 -27.999811254478022 a56.70858817700175,56.70858817700175 0 0,0 0.7581377354730514,0.6107020939426621 l -22.638476911146203 27.615260866741952" fill="#6cff28" stroke="none" /><path d="M 113.59037401385872 83.9905735841838 l 16.542542609701254 -19.48707359859635 a46.5617243829694,46.5617243829694 0 0,0 0.604904469966668,0.5225020739717741 l -16.874626559430784 19.200227392159857" fill="#e8ff1a" stroke="none" /><path d="M 114.13192950727249 84.46653392183569 l 10.625167566116527 -11.6789204105602 a36.78896347973021,36.78896347973021 0 0,0 0.463488784807353,0.42899829973190856 l -10.824086122237844 11.494804364695916" fill="#ff8f0d" stroke="none" /><path d="M 114.91283532996326 85.21462403516908 l 18.12844061463826 -17.973497608800976 a46.528160439249056,46.528160439249056 0 0,0 0.5574809183184621,0.5720245335831194 l -18.434308334107538 17.659650383150115" fill="#e9ff1a" stroke="none" /><path d="M 115.41159269507618 85.73525988315684 l 24.78975659277536 -22.94502861269601 a54.778785797693914,54.778785797693914 0 0,0 0.6328313990290881,0.6955925632771446 l -25.179985692646323 22.516098473861195" fill="#83ff25" stroke="none" /><path d="M 116.35404254752997 86.82634096563983 l 19.924341352091147 -16.049639023123035 a46.58457134851399,46.58457134851399 0 0,0 0.49631106784933254,0.6270728210242195 l -20.196918850582037 15.705246258184138" fill="#e8ff1a" stroke="none" /><path d="M 117.01052211995028 87.68569379921539 l 27.66904862875404 -20.030257431032496 a55.15827081065124,55.15827081065124 0 0,0 0.5486538077876492,0.7717502904520839 l -28.008817535071653 19.55232991387091" fill="#7eff26" stroke="none" /><path d="M 117.42321728460499 88.27688183743584 l 21.307370283678445 -14.336549644581538 a46.68152417823627,46.68152417823627 0 0,0 0.4416418099117554,0.6687019896483433 l -21.550336532510922 13.968667776594135" fill="#e7ff1a" stroke="none" /><line stroke="#e1ed5e" stroke-width="0.3" x1="172.87174338648825" x2="177.1583165268699" y1="56.24261187166439" y2="53.66864786411523" /><path d="M 173.72905801456457 55.72781907015455 a86.0,86.0 0 0,1 12.242430191666344,42.057860355516425" fill="none" id="id27" stroke="none" /><text fill="#e1ed5e" style="font-size:6.75px; font-family:Arial;" text-anchor="middle"><textPath startOffset="22.145653131862474" xlink:href="#id27">March</textPath></text><path d="M 118.00360718960297 89.18935116829356 l 13.543143113196388 -8.13226831336673 a36.79716788874219,36.79716788874219 0 0,0 0.3205318761723646,0.5443332007020771 l -13.68074869949852 7.8985839443710955" fill="#ff8f0d" stroke="none" /><path d="M 118.36410011445183 89.81374322990088 l 31.213810632205526 -17.31377458690065 a56.6940998573881,56.6940998573881 0 0,0 0.46476918761055136,0.8551229571588507 l -31.50642516943142 16.775396796267195" fill="#6cff28" stroke="none" /><path d="M 118.70294669586156 90.45014215332178 l 13.693860534895506 -6.992182761736999 a36.37570928844262,36.37570928844262 0 0,0 0.2791923800045622,0.5585717835700531 l -13.811872828111806 6.756079122003196" fill="#ff890c" stroke="none" /><path d="M 119.16976305983485 91.42560881287824 l 23.30419527640672 -10.42367012973961 a46.529167954606805,46.529167954606805 0 0,0 0.31986835002795094,0.7319213827226995 l -23.47969750845164 10.022086677241063" fill="#e9ff1a" stroke="none" /><path d="M 119.4528033332814 92.08871423366111 l 38.25499520668511 -15.55797351594149 a62.2976415571911,62.2976415571911 0 0,0 0.39437766738563884,0.9940893483718408 l -38.516431549036874 14.898983150356083" fill="#2fff30" stroke="none" /><path d="M 119.71291397450082 92.76114493625339 l 14.417355051670249 -5.294252476149137 a36.35868601043504,36.35868601043504 0 0,0 0.21011828341200267,0.58773823487928 l -14.506113505126194 5.045979284888941" fill="#ff880c" stroke="none" /><path d="M 120.05942366710727 93.78553927170692 l 24.393931268606877 -7.557302263176099 a46.53775049283948,46.53775049283948 0 0,0 0.22986032094620554,0.7651302504121309 l -24.520067909556712 7.1374344091732445" fill="#e9ff1a" stroke="none" /><path d="M 120.26092885502905 94.47779374421319 l 34.78144510525026 -9.479837529652249 a57.050190612507734,57.050190612507734 0 0,0 0.24941941049159227,0.9470861274651499 l -34.93905399654658 8.8813708978143" fill="#68ff28" stroke="none" /><path d="M 120.43855184770803 95.1765574152323 l 15.028696973836125 -3.546731564805053 a36.44153611284109,36.44153611284109 0 0,0 0.13845898904565607,0.6100758531331432 l -15.087366824439448 3.2882213777328837" fill="#ff8a0c" stroke="none" /><path d="M 120.65975698304385 96.23510406497455 l 25.096769237037673 -4.57346737235793 a46.51008486742337,46.51008486742337 0 0,0 0.13639676500056852,0.7867002944934902 l -25.171580819530476 4.141974044943847" fill="#e9ff1a" stroke="none" /><path d="M 120.77682067341334 96.94652285012252 l 35.306219616081066 -5.188798447118167 a56.68547005300285,56.68547005300285 0 0,0 0.13322565613147513,0.9639544814810109 l -35.39008978876775 4.58195565743707" fill="#6cff28" stroke="none" /><path d="M 120.86939407059847 97.66154086499901 l 15.273626475094261 -1.7114417042704684 a36.36921268015433,36.36921268015433 0 0,0 0.06419617625613211,0.6210397712016005 l -15.30075504383206 1.4489974107859365" fill="#ff880c" stroke="none" /><path d="M 120.96210409425399 98.7389718711861 l 25.436355048187558 -1.5301879556573095 a46.48233963585556,46.48233963585556 0 0,0 0.041078016284820565,0.7969025418452756 l -25.458874653928948 1.0933136204353033" fill="#e9ff1a" stroke="none" /><path d="M 120.99303781780057 99.45929381324524 l 35.688998054034975 -0.9192219922803496 a56.70083404028545,56.70083404028545 0 0,0 0.016709380470047247,0.9732376427117635 l -35.69951886610369 0.3064374335995197" fill="#6cff28" stroke="none" /><line stroke="#e1ed5e" stroke-width="0.3" x1="184.99686870605535" x2="189.99668451229388" y1="99.2704041080226" y2="99.22748670261217" /><path d="M 185.99683186730306 99.26182062694052 a86.0,86.0 0 0,1 -10.086455211305974,41.156179273409016" fill="none" id="id28" stroke="none" /><text fill="#e1ed5e" style="font-size:6.75px; font-family:Arial;" text-anchor="middle"><textPath startOffset="21.40746469413373" xlink:href="#id28">April</textPath></text><path d="M 120.99303781780057 100.54070618675476 l 15.559684546329176 0.4007622799125686 a36.56484479801439,36.56484479801439 0 0,0 -0.02154768568034203,0.6273373579957214 l -15.550512173651988 -0.6678059024724007" fill="#ff8b0c" stroke="none" /><path d="M 120.98066250479742 100.90099992219065 l 25.520967439403165 1.095980151812381 a46.5444896511213,46.5444896511213 0 0,0 -0.041132940356181605,0.7979680541565963 l -25.49839290959041 -1.533919999345708" fill="#e9ff1a" stroke="none" /><path d="M 120.93736805541906 101.62068470465957 l 40.658503770470084 3.1472253341837444 a61.780129427914495,61.780129427914495 0 0,0 -0.09092380904197774,1.0566724848054598 l -40.59848633873037 -3.844718866364862" fill="#34ff2f" stroke="none" /><path d="M 120.86939407059847 102.33845913500097 l 15.21963318019463 1.705391642957727 a36.31488148160316,36.31488148160316 0 0,0 -0.07473587692202205,0.6189202716210851 l -15.188115217012944 -1.9664055915022207" fill="#ff880c" stroke="none" /><path d="M 120.77682067341334 103.0534771498775 l 25.256847848717147 3.711886866438466 a46.528150488480094,46.528150488480094 0 0,0 -0.12291963631747688,0.7892322417556458 l -25.189406720261402 -4.144907290125563" fill="#e9ff1a" stroke="none" /><path d="M 120.592083275326 104.11899336999214 l 35.11590160605094 7.024163799392467 a56.81152639425673,56.81152639425673 0 0,0 -0.19949580989878715,0.9546596686618077 l -34.99014808532779 -7.625939919339683" fill="#6bff28" stroke="none" /><path d="M 120.43855184770803 104.8234425847677 l 19.314503066230845 4.558170132965243 a40.84507353618265,40.84507353618265 0 0,0 -0.16690556141731522,0.6810316472451527 l -19.23340997829723 -4.889057604818495" fill="#ffc812" stroke="none" /><path d="M 120.26092885502905 105.52220625578681 l 24.579015657869796 6.699120015580143 a46.475600477573735,46.475600477573735 0 0,0 -0.2164025855445973,0.7679364332175067 l -24.460394580250618 -7.120064372700658" fill="#eaff1a" stroke="none" /><path d="M 119.94978838288452 106.5578916946017 l 33.88305088312219 11.138031828188524 a56.66674768119442,56.66674768119442 0 0,0 -0.3117064509170637,0.9215047355296736 l -33.68685901063276 -11.718038238192356" fill="#6dff28" stroke="none" /><path d="M 119.71291397450082 107.23885506374661 l 14.464100359150342 5.311418000545801 a36.40848338987634,36.40848338987634 0 0,0 -0.2204781874306605,0.5848445865442564 l -14.37079148790524 -5.558930867284217" fill="#ff890c" stroke="none" /><path d="M 119.31412917781788 108.2440532568976 l 23.562231861329217 10.057315684688506 a46.61890647682916,46.61890647682916 0 0,0 -0.3204852644130458,0.7333330035652006 l -23.386112714899205 -10.460310758029552" fill="#e8ff1a" stroke="none" /><path d="M 119.0197475246899 108.90220220490707 l 32.31464528146189 15.12488565381786 a56.67910404855723,56.67910404855723 0 0,0 -0.42002115381923016,0.8776826681305708 l -32.05024486968275 -15.677380824013534" fill="#6cff28" stroke="none" /><path d="M 118.5362547648365 109.86951160357373 l 13.51187513514737 7.1943124500723545 a36.30780524102263,36.30780524102263 0 0,0 -0.29764559607155305,0.5476343722494944 l -13.386384189460477 -7.425201655796452" fill="#ff880c" stroke="none" /><line stroke="#e1ed5e" stroke-width="0.3" x1="174.33088141563837" x2="178.70328620479359" y1="141.23008692659167" y2="143.65538615756765" /><path d="M 175.20536237346943 141.71514677278685 a86.0,86.0 0 0,1 -30.301960400862466,31.631185727798858" fill="none" id="id29" stroke="none" /><text fill="#e1ed5e" style="font-size:6.75px; font-family:Arial;" text-anchor="middle"><textPath startOffset="22.145653131862474" xlink:href="#id29">May</textPath></text><path d="M 118.18653347947321 110.5 l 54.559600438419636 31.499999999999986 a84.0,84.0 0 0,0 -0.7317051594809385,1.242595326825802 l -54.010821568808936 -32.43194649511934" fill="#4dd2ff" stroke="none" /><path d="M 117.62189284568427 111.42229804090321 l 21.433742474473224 13.893092916823539 a46.54257910347994,46.54257910347994 0 0,0 -0.4403272865457304,0.6667116337296529 l -21.192090749006766 -14.258984428892253" fill="#e9ff1a" stroke="none" /><path d="M 117.21940702142032 112.02048342749411 l 27.78979713445522 19.399436664259124 a54.89116356315871,54.89116356315871 0 0,0 -0.5459969186888677,0.7680130432033103 l -27.452685117236392 -19.873626934171938" fill="#81ff25" stroke="none" /><path d="M 116.57777611688842 112.89097897827486 l 20.148213932247657 15.667373019098262 a46.52287409323618,46.52287409323618 0 0,0 -0.4956537465568073,0.6262423170441024 l -19.87629375504929 -16.010935280057048" fill="#e9ff1a" stroke="none" /><path d="M 116.1254893667686 113.45245675266167 l 31.30837085258422 26.118556486021365 a61.772454897349924,61.772454897349924 0 0,0 -0.6862785501458717,0.8084344064489676 l -30.855397738931234 -26.652157674919888" fill="#34ff2f" stroke="none" /><path d="M 115.6541949942343 113.99807769240083 l 11.572925085642895 10.348580973779269 a36.52500316292299,36.52500316292299 0 0,0 -0.42195474971822516,0.46380218553279773 l -11.39357263508279 -10.545720734869738" fill="#ff8b0c" stroke="none" /><path d="M 115.16444852881244 114.52719865689866 l 18.480829804733737 17.70421689965177 a46.592584205223396,46.592584205223396 0 0,0 -0.5582528168822208,0.5728165695100875 l -18.17419018670071 -18.018856161229593" fill="#e8ff1a" stroke="none" /><path d="M 114.65682725009322 115.03919595460226 l 28.46135878564464 29.20386142293027 a61.7788482664102,61.7788482664102 0 0,0 -0.765844475966602,0.7336616838730877 l -27.955841823812726 -29.688135237108938" fill="#34ff2f" stroke="none" /><path d="M 114.13192950727249 115.5334660781643 l 10.379305676721389 11.408675125451223 a36.423613534088254,36.423613534088254 0 0,0 -0.46610946695613603,0.4167979595257797 l -10.181931182941875 -11.58516861486039" fill="#ff890c" stroke="none" /><path d="M 113.59037401385872 116.0094264158162 l 16.51031167954948 19.44910564392108 a46.5119207842975,46.5119207842975 0 0,0 -0.6131282590724928,0.5114934003804646 l -16.174009086315095 -19.729661228213413" fill="#e9ff1a" stroke="none" /><path d="M 112.7482090630111 116.68781488649013 l 19.04427996533571 24.929573804224184 a52.37145596650477,52.37145596650477 0 0,0 -0.7191025140158601,0.5396279326491482 l -18.61352446240908 -25.252820764137347" fill="#9fff22" stroke="none" /><path d="M 112.16784306229584 117.11559508785304 l 8.885304025013935 12.498292848290175 a36.3347954579952,36.3347954579952 0 0,0 -0.5114639951705147,0.35704159092465787 l -8.669444938669661 -12.648979255019954" fill="#ff880c" stroke="none" /><path d="M 111.5731344415666 117.5232005979908 l 14.063188894768174 21.29346040994412 a46.518321616434505,46.518321616434505 0 0,0 -0.6701171739171793,0.4343618560071102 l -13.695586088593986 -21.531736107655124" fill="#e9ff1a" stroke="none" /><line stroke="#e1ed5e" stroke-width="0.3" x1="143.1302829299769" x2="145.66735839644613" y1="173.24464959558577" y2="177.55315839532614" /><path d="M 143.63769802327073 174.10635135553383 a86.0,86.0 0 0,1 -40.68552437913181,11.842963189579606" fill="none" id="id30" stroke="none" /><text fill="#e1ed5e" style="font-size:6.75px; font-family:Arial;" text-anchor="middle"><textPath startOffset="21.407464694133747" xlink:href="#id30">June</textPath></text><line stroke="#e1ed5e" stroke-width="0.3" x1="101.45913802915013" x2="101.54496967792366" y1="184.9874750549273" y2="189.98673829345242" /><path d="M 101.47630435890484 185.9873277026323 a86.0,86.0 0 0,1 -42.54439059252881,-10.42667462771756" fill="none" id="id31" stroke="none" /><text fill="#e1ed5e" style="font-size:6.75px; font-family:Arial;" text-anchor="middle"><textPath startOffset="22.145653131862474" xlink:href="#id31">July</textPath></text><line stroke="#e1ed5e" stroke-width="0.3" x1="58.13341422392154" x2="55.67067388415222" y1="173.97424548756322" y2="178.32567169271397" /><path d="M 57.64086615596768 174.84453072859336 a86.0,86.0 0 0,1 -31.369924170532247,-30.572349798747897" fill="none" id="id32" stroke="none" /><text fill="#e1ed5e" style="font-size:6.75px; font-family:Arial;" text-anchor="middle"><textPath startOffset="22.145653131862474" xlink:href="#id32">August</textPath></text><line stroke="#e1ed5e" stroke-width="0.3" x1="26.387840678322732" x2="22.057713659400548" y1="142.50000000000003" y2="145.00000000000006" /><path d="M 25.521815274538298 143.00000000000003 a86.0,86.0 0 0,1 -11.493303480769221,-40.785679425670985" fill="none" id="id33" stroke="none" /><text fill="#e1ed5e" style="font-size:6.75px; font-family:Arial;" text-anchor="middle"><textPath startOffset="21.40746469413373" xlink:href="#id33">September</textPath></text><line stroke="#e1ed5e" stroke-width="0.3" x1="15.003131293944662" x2="10.003315487706104" y1="100.72959589197737" y2="100.7725132973878" /><path d="M 14.003168132696942 100.73817937305945 a86.0,86.0 0 0,1 10.791469493833604,-42.45332614584628" fill="none" id="id34" stroke="none" /><text fill="#e1ed5e" style="font-size:6.75px; font-family:Arial;" text-anchor="middle"><textPath startOffset="22.145653131862435" xlink:href="#id34">October</textPath></text><line stroke="#e1ed5e" stroke-width="0.3" x1="26.387840678322718" x2="22.05771365940052" y1="57.49999999999999" y2="54.99999999999999" /><path d="M 25.521815274538284 56.99999999999999 a86.0,86.0 0 0,1 29.574782752854787,-30.34633250058573" fill="none" id="id35" stroke="none" /><text fill="#e1ed5e" style="font-size:6.75px; font-family:Arial;" text-anchor="middle"><textPath startOffset="21.40746469413373" xlink:href="#id35">November</textPath></text><line stroke="#e1ed5e" stroke-width="0.3" x1="56.869717070023135" x2="54.33264160355391" y1="26.7553504044142" y2="22.446841604673864" /><path d="M 56.362301976729285 25.89364864446614 a86.0,86.0 0 0,1 42.16139366436587,-11.88097634709845" fill="none" id="id36" stroke="none" /><text fill="#e1ed5e" style="font-size:6.75px; font-family:Arial;" text-anchor="middle"><textPath startOffset="22.145653131862474" xlink:href="#id36">December</textPath></text></svg>