<?xml version="1.0" encoding="utf-8" ?>
<svg baseProfile="full" height="200mm" version="1.1" viewBox="0,0,200,200" width="200mm" xmlns="http://www.w3.org/2000/svg" xmlns:ev="http://www.w3.org/2001/xml-events" xmlns:xlink="http://www.w3.org/1999/xlink"><defs /><rect fill="#1a1a1a" height="200" width="200" x="0" y="0" /><text alignment-baseline="middle" fill="#e1ed5e" style="dominant-baseline: central; font-size:9.0px; font-family:Arial;" text-anchor="middle" x="100.0" y="100.0">2024</text><line stroke="#e1ed5e" stroke-width="0.3" x1="100.0" x2="100.0" y1="15.0" y2="10.0" /><path d="M 100.0 14.0 a86.0,86.0 0 0,1 42.35913384403234,11.155469271406648" fill="none" id="id25" stroke="none" /><text fill="#e1ed5e" style="font-size:6.75px; font-family:Arial;" text-anchor="middle"><textPath startOffset="22.145653131862478" xlink:href="#id25">January</textPath></text><path d="M 100.0 79.0 l 0.0 -27.379739847439794 a48.379739847439794,48.379739847439794 0 0,0 0.8305025676681076,0.007128865696721352 l -0.4700096428192528 27.375705379937507" fill="#ceff1d" stroke="none" /><path d="M 100.72087961077811 79.0123766808444 l 0.5138166018938305 -14.959209741049952 a35.96803138616116,35.96803138616116 0 0,0 0.6168932546283735,0.02649205068204826 l -0.7705356171230403 14.948185121942073" fill="#ff870c" stroke="none" /><path d="M 101.80034050326958 79.07731436759882 l 2.9174752035050817 -33.905484219460575 a55.030773157822274,55.030773157822274 0 0,0 0.9405032625525107,0.08906663680127798 l -3.499078029442605 33.85040582715411" fill="#7eff26" stroke="none" /><path d="M 102.51750503828377 79.15144685158666 l 1.8131737665820762 -15.015679835805038 a36.12475586709496,36.12475586709496 0 0,0 0.6150191143460568,0.0796265374637223 l -2.0706707028189246 14.98234170214092" fill="#ff890c" stroke="none" /><path d="M 103.23170211078529 79.25015418208739 l 3.73857949984472 -24.00436226497876 a45.29375196269599,45.29375196269599 0 0,0 0.767238406869767,0.12624878788196528 l -4.150095409767557 23.936647478601127" fill="#f6ff19" stroke="none" /><path d="M 104.29559338865022 79.4440306129975 l 6.967768257405025 -33.34329347218586 a55.063543768392826,55.063543768392826 0 0,0 0.9235928375888203,0.20129276024236542 l -7.539123511612979 33.21876925380978" fill="#7dff26" stroke="none" /><path d="M 104.9986988182912 79.60360301121754 l 3.521583990852176 -14.369264426160422 a35.79450282887349,35.79450282887349 0 0,0 0.5955433247636687,0.15138478430086927 l -3.7677326088412393 14.306694410024285" fill="#ff840c" stroke="none" /><path d="M 105.69591212413111 79.78721728523813 l 6.585283075059683 -23.368846465777455 a45.278981410259924,45.278981410259924 0 0,0 0.7463269554629015,0.21724489964965937 l -6.985470042904189 23.25235787182528" fill="#f6ff19" stroke="none" /><path d="M 106.72888874123014 80.10723608172694 l 7.851379315665694 -23.211207848087707 a45.503149326680266,45.503149326680266 0 0,0 0.7377885571194401,0.2566411585389285 l -8.248673644830152 23.073008256980188" fill="#f3ff19" stroke="none" /><path d="M 107.74402155503746 80.48000691201159 l 8.96284834259979 -22.592232789231925 a45.30517707845985,45.30517707845985 0 0,0 0.7204505604918483,0.2930009709612636 l -9.349353364282077 22.43504456169137" fill="#f6ff19" stroke="none" /><path d="M 108.4095320186766 80.7573450057729 l 5.909098599013403 -13.521173998167333 a35.75600191588421,35.75600191588421 0 0,0 0.5603248094278978,0.2506261602132514 l -6.140336811296932 13.417744087044229" fill="#ff830c" stroke="none" /><path d="M 109.06512990194946 81.05736502329252 l 15.05062866222578 -31.450025317034203 a55.86582159608898,55.86582159608898 0 0,0 0.8615035114498707,0.42140453794162525 l -15.588292422937718 31.18702702899536" fill="#74ff27" stroke="none" /><path d="M 109.71004243097381 81.37971332152246 l 11.240703485602227 -21.55553107595269 a45.310375044774446,45.310375044774446 0 0,0 0.6865841952453713,0.365567411959568 l -11.609076496634158 21.35939319627055" fill="#f6ff19" stroke="none" /><path d="M 110.34350942703115 81.72400993836675 l 3.030695923680086 -5.3549493014681495 a27.15309676529675,27.15309676529675 0 0,0 0.40368577766862496,0.23306809240500406 l -3.1221741692091083 5.302134311786974" fill="#ff0000" stroke="none" /><line stroke="#e1ed5e" stroke-width="0.3" x1="143.13028292997686" x2="145.6673583964461" y1="26.7553504044142" y2="22.446841604673864" /><path d="M 143.63769802327073 25.89364864446614 a86.0,86.0 0 0,1 29.32050498858742,28.57503671076993" fill="none" id="id26" stroke="none" /><text fill="#e1ed5e" style="font-size:6.75px; font-family:Arial;" text-anchor="middle"><textPath startOffset="20.669276256404974" xlink:href="#id26">February</textPath></text><path d="M 111.27062007382361 82.28071324371311 l 18.22972940962645 -28.660162509506232 a54.96657105772536,54.96657105772536 0 0,0 0.7918179757394318,0.5132468454009169 l -18.719033017622888 28.34300182240142" fill="#7eff26" stroke="none" /><path d="M 111.8722381534696 82.67804972795209 l 8.280473464832253 -12.081458250137844 a35.64677009622309,35.64677009622309 0 0,0 0.5017790582973304,0.35028075281706744 l -8.486647614303346 11.93753268151565" fill="#ff820c" stroke="none" /><path d="M 113.03279911837588 83.53348406188908 l 21.076468238256755 -26.629429105141675 a54.96091883126857,54.96091883126857 0 0,0 0.7347731248783695,0.5918812175415898 l -21.530492133490384 26.263699593806678" fill="#7fff26" stroke="none" /><path d="M 113.59037401385872 83.9905735841838 l 15.732908398565456 -18.533326533674646 a45.310668421116276,45.310668421116276 0 0,0 0.5886514348067373,0.5084630893038844 l -16.048739313135055 18.26051931190604" fill="#f6ff19" stroke="none" /><path d="M 114.13192950727249 84.46653392183569 l 10.105144776177719 -11.107324269832928 a36.016211352492725,36.016211352492725 0 0,0 0.45375320352064635,0.4199871910367221 l -10.29432775101233 10.93221933266383" fill="#ff870c" stroke="none" /><path d="M 114.91283532996326 85.21462403516908 l 17.24118851183592 -17.093828811737165 a45.278747182374104,45.278747182374104 0 0,0 0.5425109723067055,0.5566640501947933 l -17.532086285293435 16.795342069474632" fill="#f6ff19" stroke="none" /><path d="M 115.41159269507618 85.73525988315684 l 23.57648270273443 -21.822040413201574 a53.12556590050576,53.12556590050576 0 0,0 0.61373259197805,0.6745996287095023 l -23.94761299555436 21.4141032089344" fill="#94ff23" stroke="none" /><path d="M 116.35404254752997 86.82634096563983 l 18.94919328848329 -15.264128770190087 a45.33239719791794,45.33239719791794 0 0,0 0.48297043012689317,0.610217361066168 l -19.208430149251743 14.936591465209242" fill="#f6ff19" stroke="none" /><path d="M 117.01052211995028 87.68569379921539 l 26.314854845612032 -19.049925564484337 a53.486477949418045,53.486477949418045 0 0,0 0.53202465125922,0.7483592992685224 l -26.637994595401214 18.59538903850631" fill="#90ff24" stroke="none" /><path d="M 117.42321728460499 88.27688183743584 l 20.264533258075893 -13.634882353418392 a45.42460490896883,45.42460490896883 0 0,0 0.42975042224256194,0.6506969131007712 l -20.49560811923918 13.285005561978563" fill="#f5ff19" stroke="none" /><line stroke="#e1ed5e" stroke-width="0.3" x1="172.87174338648825" x2="177.1583165268699" y1="56.24261187166439" y2="53.66864786411523" /><path d="M 173.72905801456457 55.72781907015455 a86.0,86.0 0 0,1 12.242430191666344,42.057860355516425" fill="none" id="id27" stroke="none" /><text fill="#e1ed5e" style="font-size:6.75px; font-family:Arial;" text-anchor="middle"><textPath startOffset="22.145653131862474" xlink:href="#id27">March</textPath></text><path d="M 118.00360718960297 89.18935116829356 l 12.880307160498186 -7.73425436859526 a36.02401421681022,36.02401421681022 0 0,0 0.3137971079482665,0.5328960918965908 l -13.01117797857622 7.512007108405113" fill="#ff870c" stroke="none" /><path d="M 118.36410011445183 89.81374322990088 l 29.686127159114314 -16.4663943165166 a54.94713960695532,54.94713960695532 0 0,0 0.4504478861272584,0.8287733754713944 l -29.964420394856912 15.954366107570602" fill="#7fff26" stroke="none" /><path d="M 118.70294669586156 90.45014215332178 l 13.023648087319778 -6.6499675105520755 a35.62318287493343,35.62318287493343 0 0,0 0.2734165574979016,0.5470162694866216 l -13.135884558029415 6.425419384901703" fill="#ff820b" stroke="none" /><path d="M 119.16976305983485 91.42560881287824 l 22.16362854468174 -9.91350913806217 a45.279705387361545,45.279705387361545 0 0,0 0.3112788233423172,0.7122668647057303 l -22.330541250041026 9.531580203580589" fill="#f6ff19" stroke="none" /><path d="M 119.4528033332814 92.08871423366111 l 36.382698208761425 -14.796526626449184 a60.276429689535576,60.276429689535576 0 0,0 0.3815823062494332,0.9618366797600677 l -36.631339189976984 14.169788929475551" fill="#43ff2d" stroke="none" /><path d="M 119.71291397450082 92.76114493625339 l 13.711732937867849 -5.035138262076206 a35.606992759553,35.606992759553 0 0,0 0.20577421840694746,0.5755871119174304 l -13.796147326318739 4.799016193777859" fill="#ff810b" stroke="none" /><path d="M 120.05942366710727 93.78553927170692 l 23.200030079101882 -7.18742862279792 a45.28786787429162,45.28786787429162 0 0,0 0.22368687214814428,0.7445808471687911 l -23.319993271253654 6.7881101720384045" fill="#f6ff19" stroke="none" /><path d="M 120.26092885502905 94.47779374421319 l 33.07915250523376 -9.015870111758797 a55.285802372653,55.285802372653 0 0,0 0.2417056295219213,0.9177956446904488 l -33.229047615560404 8.44669396269555" fill="#7bff26" stroke="none" /><path d="M 120.43855184770803 95.1765574152323 l 14.293154227724342 -3.373145479501734 a35.68578796671793,35.68578796671793 0 0,0 0.13558753697620093,0.5974237054966606 l -14.34895262625821 3.127287440066047" fill="#ff820c" stroke="none" /><path d="M 120.65975698304385 96.23510406497455 l 23.868469365446593 -4.349630218932507 a45.26155627511791,45.26155627511791 0 0,0 0.13273529541850684,0.7655819109418357 l -23.939619478357333 3.939255275070079" fill="#f7ff19" stroke="none" /><path d="M 120.77682067341334 96.94652285012252 l 33.5782432135727 -4.93484542208491 a54.93893216719868,54.93893216719868 0 0,0 0.1291208360501179,0.9342540481861455 l -33.658008566178026 4.357703065698679" fill="#7fff26" stroke="none" /><path d="M 120.86939407059847 97.66154086499901 l 14.526096254734194 -1.627679383880293 a35.617004227218096,35.617004227218096 0 0,0 0.06286843493682671,0.6081950783671488 l -14.551897082152687 1.3780797832302127" fill="#ff810b" stroke="none" /><path d="M 120.96210409425399 98.7389718711861 l 24.191434981212357 -1.455296655837319 a45.2351689659205,45.2351689659205 0 0,0 0.03997584936527884,0.7755207980524251 l -24.212852420034206 1.0398040644081632" fill="#f7ff18" stroke="none" /><path d="M 120.99303781780057 99.45929381324524 l 33.942287498865525 -0.8742329243880823 a54.95354420177262,54.95354420177262 0 0,0 0.01619446510420951,0.943246404093294 l -33.952293395568404 0.2914396043257219" fill="#7fff26" stroke="none" /><line stroke="#e1ed5e" stroke-width="0.3" x1="184.99686870605535" x2="189.99668451229388" y1="99.2704041080226" y2="99.22748670261217" /><path d="M 185.99683186730306 99.26182062694052 a86.0,86.0 0 0,1 -10.086455211305974,41.156179273409016" fill="none" id="id28" stroke="none" /><text fill="#e1ed5e" style="font-size:6.75px; font-family:Arial;" text-anchor="middle"><textPath startOffset="21.40746469413373" xlink:href="#id28">April</textPath></text><path d="M 120.99303781780057 100.54070618675476 l 14.79815391464737 0.381147952175567 a35.80306161045886,35.80306161045886 0 0,0 -0.02109876637622107,0.6142675622701671 l -14.789430461274303 -0.6351217790098449" fill="#ff840c" stroke="none" /><path d="M 120.98066250479742 100.90099992219065 l 24.271906226279494 1.0423400889412278 a45.294277200985405,45.294277200985405 0 0,0 -0.040028085312556555,0.7765341614746673 l -24.250436551510365 -1.4588460437926256" fill="#f6ff19" stroke="none" /><path d="M 120.93736805541906 101.62068470465957 l 38.66857293560184 2.993192102362771 a59.78424592328186,59.78424592328186 0 0,0 -0.08798640291600003,1.0225353730552622 l -38.611492909988094 -3.65654852279369" fill="#48ff2c" stroke="none" /><path d="M 120.86939407059847 102.33845913500097 l 14.474745529344833 1.6219254279930497 a35.5653321360434,35.5653321360434 0 0,0 -0.07319330744771123,0.6061455835147157 l -14.444770135637459 -1.870164688431174" fill="#ff810b" stroke="none" /><path d="M 120.77682067341334 103.0534771498775 l 24.020713321744193 3.5302176596037307 a45.278737718621144,45.278737718621144 0 0,0 -0.11961889554723075,0.768039118219002 l -23.956572934058695 -3.9420449597541833" fill="#f6ff19" stroke="none" /><path d="M 120.592083275326 104.11899336999214 l 33.39723985217617 6.680383314687859 a55.05881898972635,55.05881898972635 0 0,0 -0.1933411119813987,0.9252072111013782 l -33.27764102937041 -7.252706977074646" fill="#7dff26" stroke="none" /><path d="M 120.43855184770803 104.8234425847677 l 18.369202043137985 4.335081665436567 a39.87380504158155,39.87380504158155 0 0,0 -0.1629366589440526,0.664837170762951 l -18.292077857677636 -4.649774660807617" fill="#ffbe11" stroke="none" /><path d="M 120.26092885502905 105.52220625578681 l 23.376055966474855 6.371248002366316 a45.228759639226716,45.228759639226716 0 0,0 -0.21059696757714172,0.7473343431670045 l -23.263240506823134 -6.771590269436329" fill="#f7ff18" stroke="none" /><path d="M 119.94978838288452 106.5578916946017 l 32.22472798682553 10.592908153697733 a54.921126115999925,54.921126115999925 0 0,0 -0.3021043204790813,0.8931177430765442 l -32.03813824477408 -11.144527571248437" fill="#7fff26" stroke="none" /><path d="M 119.71291397450082 107.23885506374661 l 13.756190410820993 5.051463661944764 a35.654352928284204,35.654352928284204 0 0,0 -0.21591141337754757,0.572730675802978 l -13.667448313629004 -5.286862617941901" fill="#ff820c" stroke="none" /><path d="M 119.31412917781788 108.2440532568976 l 22.40903616126443 9.565085013585916 a45.3650518775147,45.3650518775147 0 0,0 -0.31186554436456004,0.7136093972252209 l -22.241536734882903 -9.948356480586982" fill="#f5ff19" stroke="none" /><path d="M 119.0197475246899 108.90220220490707 l 30.733084154017895 14.38463518847122 a54.932877731240985,54.932877731240985 0 0,0 -0.4070807235682452,0.8506421458945642 l -30.481624172489738 -14.910089836430888" fill="#7fff26" stroke="none" /><path d="M 118.5362547648365 109.86951160357373 l 12.850569517013739 6.842204456603269 a35.558602224718015,35.558602224718015 0 0,0 -0.29150374924588385,0.536334065860888 l -12.731220418152516 -7.06179335593876" fill="#ff810b" stroke="none" /><line stroke="#e1ed5e" stroke-width="0.3" x1="174.33088141563837" x2="178.70328620479359" y1="141.23008692659167" y2="143.65538615756765" /><path d="M 175.20536237346943 141.71514677278685 a86.0,86.0 0 0,1 -30.301960400862466,31.631185727798858" fill="none" id="id29" stroke="none" /><text fill="#e1ed5e" style="font-size:6.75px; font-family:Arial;" text-anchor="middle"><textPath startOffset="22.145653131862474" xlink:href="#id29">May</textPath></text><path d="M 118.18653347947321 110.5 l 51.88931449126789 29.95830968959865 a80.91661937919733,80.91661937919733 0 0,0 -0.7048465224704046,1.1969834893230087 l -51.36739425866772 -30.84464434721521" fill="#49f1ff" stroke="none" /><path d="M 117.62189284568427 111.42229804090321 l 20.384720471662664 13.213129528526013 a45.292460160416624,45.292460160416624 0 0,0 -0.42850023500149553,0.6488039702752266 l -20.15489579774044 -13.5611133771403" fill="#f6ff19" stroke="none" /><path d="M 117.21940702142032 112.02048342749411 l 26.429693611591464 18.449978774337453 a53.23244361161749,53.23244361161749 0 0,0 -0.5294977970867688,0.7448049624283523 l -26.109080715974734 -18.90096096347531" fill="#93ff23" stroke="none" /><path d="M 116.57777611688842 112.89097897827486 l 19.162108973795608 14.90057183900343 a45.27371956361283,45.27371956361283 0 0,0 -0.4823452798142885,0.6094275040682378 l -18.90349726333976 -15.22731928698635" fill="#f7ff19" stroke="none" /><path d="M 116.1254893667686 113.45245675266167 l 29.776059361222927 24.840247741381077 a59.77694700380961,59.77694700380961 0 0,0 -0.664108891092185,0.7823186038285395 l -29.345255906623628 -25.347733127659172" fill="#48ff2c" stroke="none" /><path d="M 115.6541949942343 113.99807769240083 l 11.006516626356035 9.842095036837076 a35.765169926566536,35.765169926566536 0 0,0 -0.41317678352218556,0.45415366301000376 l -10.83594214199197 -10.029586275404752" fill="#ff840c" stroke="none" /><path d="M 115.16444852881244 114.52719865689866 l 17.576330876539 16.83772738703473 a45.340017884990914,45.340017884990914 0 0,0 -0.5432450921867704,0.5574173218641713 l -17.284698983201423 -17.13696740096664" fill="#f6ff19" stroke="none" /><path d="M 114.65682725009322 115.03919595460226 l 27.0683873234007 27.774549988579956 a59.783027465087955,59.783027465087955 0 0,0 -0.7411031870205771,0.7099600887333941 l -26.58761165051481 -28.235122207618932" fill="#48ff2c" stroke="none" /><path d="M 114.13192950727249 115.5334660781643 l 9.871315994483455 10.850305477977418 a35.66874256466353,35.66874256466353 0 0,0 -0.45644945601708065,0.4081599181774929 l -9.683601511642996 -11.018160926038297" fill="#ff820c" stroke="none" /><path d="M 113.59037401385872 116.0094264158162 l 15.702254932309245 18.49721682750187 a45.26330233753947,45.26330233753947 0 0,0 -0.5966687527438485,0.4977622947984812 l -15.382411845403501 -18.76404130621222" fill="#f7ff19" stroke="none" /><path d="M 112.7482090630111 116.68781488649013 l 18.112204349744335 23.709456903385853 a50.8360569288304,50.8360569288304 0 0,0 -0.698020241475732,0.5238074023010589 l -17.702531119357836 -24.016883332950925" fill="#b0ff20" stroke="none" /><path d="M 112.16784306229584 117.11559508785304 l 8.450434592622383 11.886594531440425 a35.584271471659406,35.584271471659406 0 0,0 -0.5008993011441956,0.3496666139988009 l -8.245140200304428 -12.029905961244348" fill="#ff810b" stroke="none" /><path d="M 111.5731344415666 117.5232005979908 l 13.374900575644117 20.251304169025854 a45.26938989663253,45.26938989663253 0 0,0 -0.6521257553662241,0.4227000358685332 l -13.025289188020883 -20.47791804659828" fill="#f7ff19" stroke="none" /><line stroke="#e1ed5e" stroke-width="0.3" x1="143.1302829299769" x2="145.66735839644613" y1="173.24464959558577" y2="177.55315839532614" /><path d="M 143.63769802327073 174.10635135553383 a86.0,86.0 0 0,1 -40.68552437913181,11.842963189579606" fill="none" id="id30" stroke="none" /><text fill="#e1ed5e" style="font-size:6.75px; font-family:Arial;" text-anchor="middle"><textPath startOffset="21.407464694133747" xlink:href="#id30">June</textPath></text><path d="M 110.65571695917076 118.09573695890943 l 19.677709308188025 33.41705236346338 a59.78029953829654,59.78029953829654 0 0,0 -0.8887552280675104,0.5131230701684664 l -19.101161612260114 -33.749922330908014" fill="#48ff2c" stroke="none" /><path d="M 110.02825361518725 118.45085714620011 l 6.942568503343667 12.77354408836522 a35.538317853212234,35.538317853212234 0 0,0 -0.5385090575725965,0.28672574151411634 l -6.722270629984517 -12.890840297601905" fill="#ff800b" stroke="none" /><path d="M 109.3889696526874 118.78422872680471 l 10.9433660585383 21.894062787379106 a45.476667379953234,45.476667379953234 0 0,0 -0.7012929823198016,0.34303753989211033 l -10.56591282695643 -22.07869407736844" fill="#f4ff19" stroke="none" /><path d="M 108.4095320186766 119.2426549942271 l 15.570947822417896 35.62937583381144 a59.88324624302152,59.88324624302152 0 0,0 -0.9454849542437138,0.40357130495599075 l -14.957027793003752 -35.891421788426825" fill="#47ff2c" stroke="none" /><path d="M 107.74402155503746 119.51999308798841 l 8.957497482123408 22.578745125390668 a45.29066677923025,45.29066677923025 0 0,0 -0.7251418295876217,0.2805004375052103 l -8.568583390042257 -22.72918545103392" fill="#f6ff19" stroke="none" /><path d="M 107.06938296918513 119.77432235084164 l 4.9080600221259 13.72871740261424 a35.579668538812314,35.579668538812314 0 0,0 -0.5768891319055679,0.20067198621080665 l -4.67166511817531 -13.810947821393638" fill="#ff810b" stroke="none" /><path d="M 106.0420521117495 120.11202640906438 l 11.165090788722633 37.164955986679 a59.80583984160381,59.80583984160381 0 0,0 -0.9857710791562072,0.286943594360727 l -10.52545969718482 -37.35114327534224" fill="#48ff2c" stroke="none" /><path d="M 105.3480935250658 120.30758222061773 l 3.7306028254212893 14.165706574620806 a35.64870779964214,35.64870779964214 0 0,0 -0.5931176099309264,0.15076817707606754 l -3.4868799222649653 -14.227659983532144" fill="#ff820c" stroke="none" /><path d="M 104.64783097203109 120.47920084513623 l 5.44631775105996 23.99748092423567 a45.60775218817366,45.60775218817366 0 0,0 -0.7649887816283624,0.16672574444213284 l -5.033566552812462 -24.08743812681152" fill="#f2ff19" stroke="none" /><path d="M 103.58742460773223 120.69131181640829 l 6.62246096910871 38.196595019300695 a59.766439872083104,59.766439872083104 0 0,0 -1.01239367737742,0.16658899435147234 l -5.965789788678218 -38.30465001214784" fill="#48ff2c" stroke="none" /><path d="M 102.875027216393 120.80226474461374 l 1.9971862468670825 14.450644785114122 a35.58800492220307,35.58800492220307 0 0,0 -0.6058810016356119,0.07844342582196556 l -1.7488274233406953 -14.482799807136482" fill="#ff810b" stroke="none" /><path d="M 102.15924093988457 120.88869738790638 l 2.493252378826209 24.119955068915402 a45.248475002585636,45.248475002585636 0 0,0 -0.7733189254566766,0.07323410625740305 l -2.078833889984517 -24.15920093067799" fill="#f7ff19" stroke="none" /><path d="M 101.08105385017728 120.97215588758144 l 1.9981002831884518 38.76261169707406 a59.81407567261934,59.81407567261934 0 0,0 -1.0258804386071474,0.04405572012563861 l -1.3323940839804749 -38.79119998562553" fill="#48ff2c" stroke="none" /><line stroke="#e1ed5e" stroke-width="0.3" x1="101.45913802915013" x2="101.54496967792366" y1="184.9874750549273" y2="189.98673829345242" /><path d="M 101.47630435890484 185.9873277026323 a86.0,86.0 0 0,1 -42.54439059252881,-10.42667462771756" fill="none" id="id31" stroke="none" /><text fill="#e1ed5e" style="font-size:6.75px; font-family:Arial;" text-anchor="middle"><textPath startOffset="22.145653131862474" xlink:href="#id31">July</textPath></text><path d="M 100.36049292484886 120.99690560180557 l 0.41769068403076987 24.328388322807694 a45.33197369497287,45.33197369497287 0 0,0 -0.7781836088796191,0.006679770359614044 l -2.9798073702486125e-15 -24.331973694972874" fill="#f6ff19" stroke="none" /><path d="M 99.63950707515114 120.99690560180557 l -0.251382608863642 14.641776701882879 a35.643934519241725,35.643934519241725 0 0,0 -0.6116952111842351,-0.015755098807809658 l 0.502691134118621 -14.635303885725023" fill="#ff820c" stroke="none" /><path d="M 98.55909050195518 120.95050786540614 l -2.6598681083204543 38.67389853417235 a59.76525926890105,59.76525926890105 0 0,0 -1.0229279626923686,-0.07918109376097117 l 3.323365065788059 -38.62253967341633" fill="#48ff2c" stroke="none" /><path d="M 97.84075906011543 120.88869738790638 l -1.5045890514471474 14.555534219593254 a35.633091424285055,35.633091424285055 0 0,0 -0.6079074939189417,-0.06811730266730963 l 1.7542324469668882 -14.527561156418974" fill="#ff820b" stroke="none" /><path d="M 97.12497278360702 120.80226474461374 l -3.3204161283959914 24.02487704162922 a45.25324473407868,45.25324473407868 0 0,0 -0.7686045850684334,-0.11295840565254311 l 3.7323458190721097 -23.964337562677798" fill="#f7ff19" stroke="none" /><path d="M 96.05791012581884 120.62667999033965 l -7.554779383759612 39.52979808173276 a61.2452435440493,61.2452435440493 0 0,0 -1.030971849396849,-0.2062232439299864 l 8.23224771868742 -39.39428544113991" fill="#38ff2e" stroke="none" /><path d="M 95.35216902796893 120.47920084513623 l -3.225022298776966 14.210043304960113 a35.57141378029086,35.57141378029086 0 0,0 -0.5943269210246632,-0.14025953509351471 l 3.468481373541517 -14.152587626220372" fill="#ff810b" stroke="none" /><path d="M 94.30408787586889 120.21278271476187 l -6.581893495856488 23.356818044966946 a45.26648452447308,45.26648452447308 0 0,0 -0.7461209710871095,-0.21718494059991622 l 6.981874479325205 -23.240389410064513" fill="#f7ff19" stroke="none" /><path d="M 93.61358852112213 120.00534299687104 l -11.79212092792515 36.938650853291655 a59.77522460077046,59.77522460077046 0 0,0 -0.9748407275125294,-0.32044950993056914 l 12.424484393085423 -36.73078042195906" fill="#48ff2c" stroke="none" /><path d="M 92.93061703081489 119.77432235084164 l -4.913123137569531 13.742879837627099 a35.594708808207805,35.594708808207805 0 0,0 -0.5736016954481054,-0.21063448777989693 l 5.148313984671755 -13.656514500838481" fill="#ff810b" stroke="none" /><path d="M 92.25597844496254 119.51999308798841 l -8.944274321944032 22.54541412373111 a45.25480861925572,45.25480861925572 0 0,0 -0.7196495927657539,-0.2926752243600121 l 9.329978375900227 -22.388551642791803" fill="#f7ff19" stroke="none" /><path d="M 91.26138138417905 119.09545874513695 l -16.138178749830278 35.264833045935504 a59.78207399197699,59.78207399197699 0 0,0 -0.9295010412642934,-0.43505342057064467 l 16.741168504966062 -34.982603393794335" fill="#48ff2c" stroke="none" /><path d="M 89.97174638481275 118.45085714620012 l -11.875422620902635 21.84944006573537 a45.868126057489896,45.868126057489896 0 0,0 -0.6885806341910572,-0.38194407039133793 l 12.248747443249794 -21.642363079910883" fill="#efff19" stroke="none" /><line stroke="#e1ed5e" stroke-width="0.3" x1="58.13341422392154" x2="55.67067388415222" y1="173.97424548756322" y2="178.32567169271397" /><path d="M 57.64086615596768 174.84453072859336 a86.0,86.0 0 0,1 -31.369924170532247,-30.572349798747897" fill="none" id="id32" stroke="none" /><text fill="#e1ed5e" style="font-size:6.75px; font-family:Arial;" text-anchor="middle"><textPath startOffset="22.145653131862474" xlink:href="#id32">August</textPath></text><path d="M 89.03521579738668 117.91015095944536 l -25.307727701999468 41.3382712516419 a69.46992625858714,69.46992625858714 0 0,0 -1.0117331152480677,-0.6313962913724608 l 26.013624946037247 -40.89773916342789" fill="#39ff8d" stroke="none" /><path d="M 87.83215693770417 117.11559508785305 l -8.434627723812092 11.864360190910356 a35.55699102077617,35.55699102077617 0 0,0 -0.49444364723949763,-0.35793907019461535 l 8.637052381425544 -11.717820349342674" fill="#ff810b" stroke="none" /><path d="M 86.68645165197938 116.24036423190432 l -15.396509912671142 18.781238655965083 a45.28553979106287,45.28553979106287 0 0,0 -0.5969618907380515,-0.49800684093905523 l 15.716646137571086 -18.514169631114157" fill="#f6ff19" stroke="none" /><path d="M 86.13680546590413 115.77377054828092 l -16.0736497236491 18.28886278633005 a45.3484027701156,45.3484027701156 0 0,0 -0.5803191334299994,-0.5189249475384565 l 16.38523388390247 -18.01024230890821" fill="#f6ff19" stroke="none" /><path d="M 85.86807049272751 115.53346607816431 l -16.318192978359207 17.9365526098781 a45.24878020861867,45.24878020861867 0 0,0 -0.5700704822646797,-0.5276487277260581 l 16.623693231937853 -17.65378613601966" fill="#f7ff19" stroke="none" /><path d="M 85.08716467003676 114.78537596483092 l -34.457037218708535 34.16253439673925 a69.5218112842035,69.5218112842035 0 0,0 -0.8329812060480092,-0.8547120990443076 l 35.038405225907354 -33.565999605627205" fill="#39ff8d" stroke="none" /><path d="M 84.83555147118756 114.52719865689866 l -17.539576275949514 16.80251731109271 a45.28911945562089,45.28911945562089 0 0,0 -0.5329972223180319,-0.5660245796534212 l 17.825429332003797 -16.4989512714948" fill="#f6ff19" stroke="none" /><path d="M 84.3458050057657 113.99807769240083 l -18.081570716285363 16.16865203100036 a45.25630862410026,45.25630862410026 0 0,0 -0.512880987552914,-0.583564415570901 l 18.35646276779687 -15.855875337618158" fill="#f7ff19" stroke="none" /><path d="M 83.4222238831116 112.89097897827486 l -19.137735305810345 14.881618727355281 a45.24284406957301,45.24284406957301 0 0,0 -0.47149080778542907,-0.6171966024493801 l 19.39037809095007 -14.550901211665032" fill="#f7ff19" stroke="none" /><path d="M 83.20337586046588 112.60449989151573 l -19.39152865206539 14.551764614175724 a45.244282560023294,45.244282560023294 0 0,0 -0.4608409840460717,-0.6252193019321344 l 19.63847165569529 -14.21673900297471" fill="#f7ff19" stroke="none" /><path d="M 82.78059297857968 112.02048342749411 l -19.89523637210696 13.888420129653436 a45.263318899107155,45.263318899107155 0 0,0 -0.43929185416375727,-0.6409399436210365 l 20.130717963086042 -13.544845450962349" fill="#f7ff19" stroke="none" /><path d="M 82.37810715431573 111.42229804090323 l -20.358642924334536 13.196226377407916 a45.261383561626346,45.261383561626346 0 0,0 -0.41701318912902213,-0.6556139973604896 l 20.58217380508945 -12.844798705368754" fill="#f7ff19" stroke="none" /><path d="M 81.99639281039703 110.81064883170644 l -54.01082156880893 32.43194649511935 a84.0,84.0 0 0,0 -0.7317051594809199,-1.2425953268257648 l 54.559600438419615 -31.50000000000003" fill="#4dd2ff" stroke="none" /><line stroke="#e1ed5e" stroke-width="0.3" x1="26.387840678322732" x2="22.057713659400548" y1="142.50000000000003" y2="145.00000000000006" /><path d="M 25.521815274538298 143.00000000000003 a86.0,86.0 0 0,1 -11.493303480769221,-40.785679425670985" fill="none" id="id33" stroke="none" /><text fill="#e1ed5e" style="font-size:6.75px; font-family:Arial;" text-anchor="middle"><textPath startOffset="21.40746469413373" xlink:href="#id33">September</textPath></text><path d="M 81.63589988554817 110.18625677009913 l -21.246920729950226 11.78530876984796 a45.296607650152396,45.296607650152396 0 0,0 -0.3713343644582653,-0.6832134063420866 l 21.44610044402382 -11.418840530031288" fill="#f6ff19" stroke="none" /><path d="M 81.29705330413844 109.54985784667822 l -21.591938983151344 11.024997893453422 a45.24381173831341,45.24381173831341 0 0,0 -0.34725721441015184,-0.6947470472062162 l 21.778016110773233 -10.652718990083454" fill="#f7ff19" stroke="none" /><path d="M 80.9802524753101 108.90220220490708 l -21.97819066530193 10.28690297526486 a45.26646323102891,45.26646323102891 0 0,0 -0.32336536693912993,-0.7066116849192833 l 22.151540497096118 -9.90810230813089" fill="#f7ff19" stroke="none" /><path d="M 80.83023694016515 108.57439118712176 l -13.326083303628497 5.9605875607764105 a35.59839375701754,35.59839375701754 0 0,0 -0.24472390062533447,-0.5599761768094048 l 13.426441086270799 -5.7309493141911565" fill="#ff810b" stroke="none" /><path d="M 80.5471966667186 107.91128576633889 l -47.742575924045916 19.416489998130544 a72.53982576329486,72.53982576329486 0 0,0 -0.45921621689042297,-1.1575248487993006 l 48.068850815902465 -18.594064132117676" fill="#3dffb1" stroke="none" /><path d="M 80.16572619554312 106.89939002012753 l -23.071118117954654 8.025332495935988 a45.42708441224498,45.42708441224498 0 0,0 -0.24988050024176015,-0.7387272981096464 l 23.205484039768784 -7.628103523352181" fill="#f4ff19" stroke="none" /><path d="M 79.94057633289273 106.21446072829308 l -23.146703840983967 7.170908017915605 a45.232041195566424,45.232041195566424 0 0,0 -0.22341113174055105,-0.7436629970316372 l 23.266391292728148 -6.7725074172932445" fill="#f7ff18" stroke="none" /><path d="M 79.73907114497094 105.5222062557868 l -37.42768780778215 10.2010827455459 a59.79296203976023,59.79296203976023 0 0,0 -0.26141061376634767,-0.992618679445589 l 37.59728790235323 -9.557083561727508" fill="#48ff2c" stroke="none" /><path d="M 79.64726062577567 105.17358676015961 l -28.496754438313452 7.243763542527883 a50.40301215483872,50.40301215483872 0 0,0 -0.20596224495409676,-0.8403962442011398 l 28.616904209783844 -6.753511473718643" fill="#b5ff1f" stroke="none" /><path d="M 79.48165901384964 104.47187691870673 l -23.704185874412595 5.1662169841153345 a45.26063119326584,45.26063119326584 0 0,0 -0.1589344073202616,-0.7605586739305694 l 23.789377992557224 -4.758541858899356" fill="#f7ff19" stroke="none" /><path d="M 79.34024301695615 103.76489593502545 l -38.18558986619429 6.958686502545825 a59.814463686490804,59.814463686490804 0 0,0 -0.17541355536841233,-1.0117387730266545 l 38.29941823905494 -6.302154696598578" fill="#48ff2c" stroke="none" /><path d="M 79.22317932658666 103.0534771498775 l -24.011649767274914 3.5288856292173967 a45.269576805753545,45.269576805753545 0 0,0 -0.10639532612328112,-0.7698235790556577 l 24.068689609953406 -3.1161737419616533" fill="#f7ff19" stroke="none" /><path d="M 79.0935383218832 101.97986365728391 l -24.1581704898754 2.287803862546357 a45.266257394401975,45.266257394401975 0 0,0 -0.06661981095678896,-0.7742231866735713 l 24.193883923529928 -1.8727596284971235" fill="#f7ff19" stroke="none" /><path d="M 79.03789590574601 101.26102812881392 l -29.058224957558362 1.748070655508678 a50.1107572677304,50.1107572677304 0 0,0 -0.04428457171507502,-0.8591088605540442 l 29.08395111873001 -1.248990001577903" fill="#b9ff1f" stroke="none" /><line stroke="#e1ed5e" stroke-width="0.3" x1="15.003131293944662" x2="10.003315487706104" y1="100.72959589197737" y2="100.7725132973878" /><path d="M 14.003168132696942 100.73817937305945 a86.0,86.0 0 0,1 10.791469493833604,-42.45332614584628" fill="none" id="id34" stroke="none" /><text fill="#e1ed5e" style="font-size:6.75px; font-family:Arial;" text-anchor="middle"><textPath startOffset="22.145653131862435" xlink:href="#id34">October</textPath></text><path d="M 79.00077361379809 99.81974689727619 l -24.258223317190172 -0.2082276717757487 a45.259116992791846,45.259116992791846 0 0,0 0.013337578156850905,-0.7768470619318709 l 24.251074307434656 0.624621649676672" fill="#f7ff19" stroke="none" /><path d="M 79.03789590574601 98.7389718711861 l -24.225440649495624 -1.4573423523977165 a45.269236110646894,45.269236110646894 0 0,0 0.05332293249813618,-0.7753037357478403 l 24.196853755832425 1.8729895122998816" fill="#f7ff19" stroke="none" /><path d="M 79.0935383218832 98.0201363427161 l -24.18873651392035 -2.29069849680278 a45.29696017495024,45.29696017495024 0 0,0 0.07995475912089353,-0.773489765384198 l 24.145849362317794 2.7055927844698906" fill="#f6ff19" stroke="none" /><path d="M 79.17382384314186 97.30363454192245 l -24.07055965456866 -3.116415856676665 a45.2714624585313,45.2714624585313 0 0,0 0.1063997578996938,-0.7698556451820604 l 24.013515380113763 3.5291598100587924" fill="#f7ff19" stroke="none" /><path d="M 79.34024301695615 96.23510406497455 l -23.884350615689698 -4.352524311759076 a45.27769907173352,45.27769907173352 0 0,0 0.1459099891960402,-0.763462719166396 l 23.8061143342115 4.761889595958786" fill="#f6ff19" stroke="none" /><path d="M 79.56144815229197 95.17655741523228 l -23.647453229465278 -5.580734573476962 a45.297050080603384,45.297050080603384 0 0,0 0.1850977099491281,-0.7552618213408414 l 23.548167992999854 5.9858522194259205" fill="#f6ff19" stroke="none" /><path d="M 79.73907114497095 94.47779374421319 l -23.43404495914996 -6.387053160185522 a45.28886393429091,45.28886393429091 0 0,0 0.2108768289392401,-0.7483274724111216 l 23.320949638136142 6.788388556499656" fill="#f6ff19" stroke="none" /><path d="M 79.94057633289273 93.78553927170692 l -24.556115681648865 -7.607547408914926 a46.70753965181051,46.70753965181051 0 0,0 0.24384735167006072,-0.7638483560247105 l 24.421903614201547 8.027964798631029" fill="#e4ff1a" stroke="none" /><path d="M 80.16572619554312 93.10060997987247 l -22.909111621702348 -7.968978226832977 a45.25555625573975,45.25555625573975 0 0,0 0.2615336481792065,-0.7315561608743026 l 22.768937803479197 8.3610693440882" fill="#f7ff19" stroke="none" /><path d="M 80.41425534168474 92.42381321644754 l -22.65835470014867 -8.764738354915135 a45.29447830573585,45.29447830573585 0 0,0 0.2867384744134447,-0.7227682669568345 l 22.504557550769096 9.15240763908555" fill="#f6ff19" stroke="none" /><path d="M 80.83023694016515 91.42560881287825 l -35.42053439464024 -15.843154503713635 a59.80231695956356,59.80231695956356 0 0,0 0.42720364674271627,-0.9335170661159691 l 35.143346283042476 16.448860552044277" fill="#48ff2c" stroke="none" /><path d="M 81.1358732173502 90.77261029715801 l -21.811147456219373 -10.668925191374068 a45.280694349546124,45.280694349546124 0 0,0 0.3475402973853494,-0.6953134027863712 l 21.624787245622283 11.041770450324211" fill="#f6ff19" stroke="none" /><path d="M 81.63589988554816 89.8137432299009 l -12.746877333029458 -7.070477982692587 a35.576506462353755,35.576506462353755 0 0,0 0.30081907318169887,-0.5315184783851867 l 12.62362489482639 7.2882532311768795" fill="#ff810b" stroke="none" /><line stroke="#e1ed5e" stroke-width="0.3" x1="26.387840678322718" x2="22.05771365940052" y1="57.49999999999999" y2="54.99999999999999" /><path d="M 25.521815274538284 56.99999999999999 a86.0,86.0 0 0,1 29.574782752854787,-30.34633250058573" fill="none" id="id35" stroke="none" /><text fill="#e1ed5e" style="font-size:6.75px; font-family:Arial;" text-anchor="middle"><textPath startOffset="21.40746469413373" xlink:href="#id35">November</textPath></text><path d="M 81.99639281039701 89.18935116829357 l -33.272331315898796 -19.97907896346979 a59.809942378513014,59.809942378513014 0 0,0 0.5361022476053885,-0.875682731815358 l 32.92446110383801 20.54729881140969" fill="#48ff2c" stroke="none" /><path d="M 82.37810715431573 88.57770195909679 l -20.334689699476236 -13.180700186449409 a45.23283851675351,45.23283851675351 0 0,0 0.42793617007257445,-0.6479499040799713 l 20.105429090482932 13.52782996886844" fill="#f7ff18" stroke="none" /><path d="M 82.78059297857968 87.97951657250589 l -13.945916881780681 -9.735333077969598 a38.00780138091177,38.00780138091177 0 0,0 0.3780598022163875,-0.5317884575434867 l 13.776741981034322 9.973298762222605" fill="#ffa40f" stroke="none" /><path d="M 83.42222388311158 87.10902102172516 l -38.264910556541096 -29.75502589200873 a69.47231112433366,69.47231112433366 0 0,0 0.7401565780679578,-0.9351636573811065 l 37.74848754783158 30.40750949330452" fill="#39ff8d" stroke="none" /><path d="M 84.10781606972428 86.27271002978789 l -11.028155784839713 -9.525858306155438 a35.57265234895982,35.57265234895982 0 0,0 0.4031379849857058,-0.45869702389453965 l 10.863006735895414 9.713767607861278" fill="#ff810b" stroke="none" /><path d="M 84.58840730492382 85.73525988315684 l -17.799073617599888 -16.474556815710528 a45.25320687906683,45.25320687906683 0 0,0 0.532574575470809,-0.5655757433480422 l 17.513643208392807 16.777674019003083" fill="#f7ff19" stroke="none" /><path d="M 85.08716467003674 85.21462403516908 l -27.533689053298865 -27.2983597917041 a59.7724706486584,59.7724706486584 0 0,0 0.728677878088113,-0.7224498994594949 l 27.061019255080776 27.76698970139227" fill="#48ff2c" stroke="none" /><path d="M 85.60350026404147 84.71141617570332 l -11.19353447159326 -11.8871457088742 a37.327873317451754,37.327873317451754 0 0,0 0.47027828476009487,-0.4352825595268151 l 10.987826415519212 12.07754601453338" fill="#ff9a0e" stroke="none" /><path d="M 86.40962598614128 83.9905735841838 l -15.710766551635828 -18.507243493666437 a45.27645458821897,45.27645458821897 0 0,0 0.5968421280081813,-0.4979069306102926 l 15.390750089465739 18.77421260818861" fill="#f6ff19" stroke="none" /><path d="M 86.96720088162412 83.53348406188908 l -24.09241687601377 -30.439981685678852 a59.82057490496627,59.82057490496627 0 0,0 0.8106828916264688,-0.6303919199003766 l 23.566324039752054 30.849074657200035" fill="#48ff2c" stroke="none" /><path d="M 87.54013794807813 83.09580414077388 l -8.672737732507338 -11.766234381655243 a35.61713553679046,35.61713553679046 0 0,0 0.49527999680128537,-0.35854452277990406 l 8.469476725332084 11.913379675808226" fill="#ff810b" stroke="none" /><path d="M 88.4268655584334 82.4767994020092 l -13.383344453596052 -20.264089276459273 a45.28471171267866,45.28471171267866 0 0,0 0.652346472961135,-0.4228431023469178 l 13.033512348377892 20.4908462205101" fill="#f6ff19" stroke="none" /><path d="M 89.03521579738668 82.08984904055464 l -20.256367732880978 -33.0872543665263 a59.7954486408511,59.7954486408511 0 0,0 0.8800387848494935,-0.5284380047340578 l 19.68539619147405 33.430106371796285" fill="#48ff2c" stroke="none" /><line stroke="#e1ed5e" stroke-width="0.3" x1="56.869717070023135" x2="54.33264160355391" y1="26.7553504044142" y2="22.446841604673864" /><path d="M 56.362301976729285 25.89364864446614 a86.0,86.0 0 0,1 42.16139366436587,-11.88097634709845" fill="none" id="id36" stroke="none" /><text fill="#e1ed5e" style="font-size:6.75px; font-family:Arial;" text-anchor="middle"><textPath startOffset="22.145653131862474" xlink:href="#id36">December</textPath></text><path d="M 89.34428304082924 81.90426304109057 l -7.633372830205465 -12.963135880387886 a36.0436455893616,36.0436455893616 0 0,0 0.5358617923223321,-0.30937995004573215 l 7.409718570022733 13.092262727709793" fill="#ff880c" stroke="none" /><path d="M 90.28995756902619 81.37971332152246 l -6.058960239356005 -11.61885516281838 a34.10377023900558,34.10377023900558 0 0,0 0.5214186790799603,-0.2662400927934105 l 5.858614338562462 11.721153207284623" fill="#ff6b09" stroke="none" /><path d="M 91.26138138417902 80.90454125486306 l -20.191492182068735 -44.12205440198462 a69.52269614510547,69.52269614510547 0 0,0 1.0894755951759785,-0.48730857615209816 l 19.431103184037138 44.462166729046565" fill="#39ff8d" stroke="none" /></svg>