<?xml version="1.0" encoding="utf-8" ?>
<svg baseProfile="full" height="200mm" version="1.1" viewBox="0,0,200,200" width="200mm" xmlns="http://www.w3.org/2000/svg" xmlns:ev="http://www.w3.org/2001/xml-events" xmlns:xlink="http://www.w3.org/1999/xlink"><defs /><rect fill="#1a1a1a" height="200" width="200" x="0" y="0" /><text alignment-baseline="middle" fill="#e1ed5e" style="dominant-baseline: central; font-size:9.0px; font-family:Arial;" text-anchor="middle" x="100.0" y="100.0">2025</text><line stroke="#e1ed5e" stroke-width="0.3" x1="100.0" x2="100.0" y1="15.0" y2="10.0" /><path d="M 100.0 14.0 a86.0,86.0 0 0,1 42.46469731375804,11.215312516191453" fill="none" id="id37" stroke="none" /><text fill="#e1ed5e" style="font-size:6.75px; font-family:Arial;" text-anchor="middle"><textPath startOffset="22.20632615414155" xlink:href="#id37">January</textPath></text><path d="M 100.0 79.0 l 0.0 -50.377559444888476 a71.37755944488848,71.37755944488848 0 0,0 1.2286473522591272,0.01057535565870696 l -0.8671668729865988 50.370095465838325" fill="#37ff77" stroke="none" /><path d="M 101.08401301168833 79.027996857942 l 2.598504385757783 -50.27231366705414 a71.33942536900358,71.33942536900358 0 0,0 1.2258081946243173,0.07394409783671438 l -3.4634746292217122 50.22013629983712" fill="#37ff77" stroke="none" /><path d="M 101.80526077348638 79.07773832637324 l 2.708673869243721 -31.39246379977907 a52.509104994435546,52.509104994435546 0 0,0 0.8998432136417864,0.08545095577048432 l -3.2486422099757517 31.34118729949341" fill="#ffef16" stroke="none" /><path d="M 102.52436894288641 79.15227682838746 l 2.2714956912889304 -18.759347159197414 a39.896369982481616,39.896369982481616 0 0,0 0.6810600487962544,0.08842114088803317 l -2.594070468593031 18.717467695145245" fill="#ff0000" stroke="none" /><path d="M 103.59715602781102 79.31037775812273 l 10.791468083433088 -62.06886672563182 a84.0,84.0 0 0,0 1.4224195155883965,0.2599380745970459 l -11.858282720124386 61.87391316968404" fill="#4dd2ff" stroke="none" /><path d="M 104.307194497241 79.44645832069477 l 6.461914499248169 -30.83567019633766 a52.50547405535902,52.50547405535902 0 0,0 0.8829852468770574,0.19298637491196136 l -6.991742470278754 30.719870323329825" fill="#ffef16" stroke="none" /><path d="M 105.01212808612495 79.60689891045804 l 4.5173985481954375 -18.380169794567976 a39.92716384777147,39.92716384777147 0 0,0 0.6660062188519504,0.1697798144324138 l -4.833113655732412 18.299686983966694" fill="#ff0100" stroke="none" /><path d="M 106.0581310904928 79.89281104454417 l 14.525858440325049 -48.211928074349466 a71.3526620157724,71.3526620157724 0 0,0 1.17295155351776,0.36444175731356404 l -15.353595366553527 47.95474618215338" fill="#37ff77" stroke="none" /><path d="M 107.08798089147638 80.2323363322302 l 6.371823741924053 -17.77037362390931 a39.87819685593618,39.87819685593618 0 0,0 0.6441613899930488,0.23725007623603633 l -6.676767457689678 17.658060279866948" fill="#ff0000" stroke="none" /><path d="M 108.09893153111575 80.62456947434976 l 12.156298088801265 -29.082047201381318 a52.52048623747997,52.52048623747997 0 0,0 0.8311147916888004,0.3558399796901142 l -12.65509663828038 28.868487693728415" fill="#ffef16" stroke="none" /><path d="M 108.43124777332544 80.76684994638697 l 12.636550046053875 -28.82617967469426 a52.47429159971961,52.47429159971961 0 0,0 0.8241409376369502,0.3697680155859842 l -13.130873102157606 28.604391328591742" fill="#ffee16" stroke="none" /><path d="M 109.41281617654863 81.2277094730956 l 14.127343832309824 -28.174628912261646 a52.51811476119649,52.51811476119649 0 0,0 0.804626316001197,0.41216085091148014 l -14.610230635899777 27.927275536037666" fill="#ffef16" stroke="none" /><path d="M 110.05341064243156 81.56283822128135 l 15.104264744697899 -27.700029626884668 a52.55044302079152,52.55044302079152 0 0,0 0.7904485266124113,0.4398837492593455 l -15.578837360382346 27.435930480065142" fill="#fff016" stroke="none" /><line stroke="#e1ed5e" stroke-width="0.3" x1="143.23703022742887" x2="145.7803849466894" y1="26.81831364943548" y2="22.513508569990506" /><path d="M 143.74570117128098 25.957352633546492 a86.0,86.0 0 0,1 28.547481713284135,27.462654790039103" fill="none" id="id38" stroke="none" /><text fill="#e1ed5e" style="font-size:6.75px; font-family:Arial;" text-anchor="middle"><textPath startOffset="19.985693538727396" xlink:href="#id38">February</textPath></text><path d="M 110.99172775467656 82.1063720568725 l 16.747362271001133 -27.263327130583864 a52.99629899324893,52.99629899324893 0 0,0 0.7731929050802181,0.4841733262283791 l -17.214174328453613 26.97100946303254" fill="#fff717" stroke="none" /><path d="M 111.90073688211348 82.69761687909136 l 17.93211652866568 -26.07135620434378 a52.64295209887061,52.64295209887061 0 0,0 0.7421875636602415,0.5199498184265645 l -18.378235231909574 25.758821543153278" fill="#fff116" stroke="none" /><path d="M 113.34407831869373 83.78471172551755 l 12.06066210695615 -14.65572279888756 a39.98024713263767,39.98024713263767 0 0,0 0.527629722062971,0.44187471840925124 l -12.311149365978237 14.44594692308449" fill="#ff0200" stroke="none" /><path d="M 113.89432698308785 84.25364557470407 l 20.821021678437326 -23.596334478417642 a52.46906329319826,52.46906329319826 0 0,0 0.6720762627143282,0.6033967044882786 l -21.224108928747643 23.234438765160064" fill="#ffee16" stroke="none" /><path d="M 114.68862486808459 84.99185889309783 l 35.206769959539116 -35.97260984035942 a71.33433529620342,71.33433529620342 0 0,0 0.8701572819879938,0.8664205500840637 l -35.820763041694434 35.36125343962524" fill="#37ff77" stroke="none" /><path d="M 115.4437574822437 85.77008943001954 l 16.21944831446272 -14.944633731433973 a43.05476322684607,43.05476322684607 0 0,0 0.49750057613166915,0.5493525619715677 l -16.474292531210423 14.663228382192855" fill="#ff4006" stroke="none" /><path d="M 115.9244219780498 86.31012108654704 l 23.905524479237823 -20.55105899193397 a52.52491278841845,52.52491278841845 0 0,0 0.5835002229072767,0.6906802184777829 l -24.25573531563222 20.136519823827083" fill="#ffef16" stroke="none" /><path d="M 116.38621287248628 86.86637796730983 l 39.295057213394784 -31.495162012707127 a71.35917743183103,71.35917743183103 0 0,0 0.7599613735619192,0.9650737691378429 l -39.83137266755067 30.814095849616244" fill="#37ff77" stroke="none" /><path d="M 116.82858285166822 87.43820079747576 l 15.181321045243813 -11.332190492825948 a39.94442002396636,39.94442002396636 0 0,0 0.4065531419324266,0.5545380287022195 l -15.374136799689866 11.069190020452236" fill="#ff0100" stroke="none" /><line stroke="#e1ed5e" stroke-width="0.3" x1="172.23445277983987" x2="176.4835382374775" y1="55.19839476539836" y2="52.563006222186495" /><path d="M 173.08426987136738 54.67131705675599 a86.0,86.0 0 0,1 12.851231095245387,41.99856678651699" fill="none" id="id39" stroke="none" /><text fill="#e1ed5e" style="font-size:6.75px; font-family:Arial;" text-anchor="middle"><textPath startOffset="22.20632615414155" xlink:href="#id39">March</textPath></text><path d="M 117.84615892207809 88.93136811851018 l 42.83651359177336 -26.568271755509134 a71.40674519122186,71.40674519122186 0 0,0 0.6388666341538922,1.050128767878075 l -43.287496024213475 25.826975214423978" fill="#37ff78" stroke="none" /><path d="M 118.56541770881063 90.18545643968196 l 27.843088880286682 -14.71915218690154 a52.494301698826604,52.494301698826604 0 0,0 0.4154313216758029,0.8024810843437362 l -28.0923296351226 14.23769838029746" fill="#ffef16" stroke="none" /><path d="M 119.196687751892 91.48605970444005 l 57.57969584782599 -25.5372228282754 a83.9886586911417,83.9886586911417 0 0,0 0.5747595486556827,1.3266242825178838 l -58.010746106324355 24.54229940117091" fill="#4dd2ff" stroke="none" /><path d="M 119.47837535516314 92.15188598940014 l 17.528105390477965 -7.062322549288855 a39.89737755271605,39.89737755271605 0 0,0 0.25117574548924376,0.6392148752219005 l -17.64707468584891 6.75955866917117" fill="#ff0000" stroke="none" /><path d="M 119.85752413597 93.16781622104841 l 29.78672481971974 -10.248426578656293 a52.5004638509311,52.5004638509311 0 0,0 0.2866592982564342,0.8570748151025681 l -29.958721411747945 9.734178660631411" fill="#ffef16" stroke="none" /><line stroke="#e1ed5e" stroke-width="0.3" x1="184.98032266829074" x2="189.97916517819016" y1="98.17113171792111" y2="98.06355123074" /><path d="M 185.9800911702706 98.14961562048488 a86.0,86.0 0 0,1 -9.607161424134198,41.387399972396054" fill="none" id="id40" stroke="none" /><text fill="#e1ed5e" style="font-size:6.75px; font-family:Arial;" text-anchor="middle"><textPath startOffset="21.466115282336823" xlink:href="#id40">April</textPath></text><line stroke="#e1ed5e" stroke-width="0.3" x1="174.80103733775053" x2="179.2010983576182" y1="140.37084112569926" y2="142.7455964860345" /><path d="M 175.68104954172406 140.8457921977663 a86.0,86.0 0 0,1 -30.038265399797805,32.042727171017184" fill="none" id="id41" stroke="none" /><text fill="#e1ed5e" style="font-size:6.75px; font-family:Arial;" text-anchor="middle"><textPath startOffset="22.206326154141568" xlink:href="#id41">May</textPath></text><line stroke="#e1ed5e" stroke-width="0.3" x1="143.8653032363475" x2="146.44561519142675" y1="172.8068346515853" y2="177.08958963109032" /><path d="M 144.38136562736335 173.6633856474863 a86.0,86.0 0 0,1 -40.68145358897372,12.25698825130547" fill="none" id="id42" stroke="none" /><text fill="#e1ed5e" style="font-size:6.75px; font-family:Arial;" text-anchor="middle"><textPath startOffset="21.466115282336833" xlink:href="#id42">June</textPath></text><line stroke="#e1ed5e" stroke-width="0.3" x1="102.19456741930631" x2="102.32365962044197" y1="184.97166512339345" y2="189.96999836594603" /><path d="M 102.22038585953345 185.97133177190398 a86.0,86.0 0 0,1 -42.740103519485714,-10.115201625700543" fill="none" id="id43" stroke="none" /><text fill="#e1ed5e" style="font-size:6.75px; font-family:Arial;" text-anchor="middle"><textPath startOffset="22.20632615414155" xlink:href="#id43">July</textPath></text><line stroke="#e1ed5e" stroke-width="0.3" x1="58.666819895761336" x2="56.23545636021788" y1="174.27360380694188" y2="178.64263932499728" /><path d="M 58.180547188652646 175.14741091055294 a86.0,86.0 0 0,1 -31.652253787137756,-30.449443065178592" fill="none" id="id44" stroke="none" /><text fill="#e1ed5e" style="font-size:6.75px; font-family:Arial;" text-anchor="middle"><textPath startOffset="22.20632615414155" xlink:href="#id44">August</textPath></text><line stroke="#e1ed5e" stroke-width="0.3" x1="26.63291911575756" x2="22.317208475507996" y1="142.92168965132927" y2="145.44649492493687" /><path d="M 25.769776987707644 143.4266507060508 a86.0,86.0 0 0,1 -11.730757126820373,-40.83630448921669" fill="none" id="id45" stroke="none" /><text fill="#e1ed5e" style="font-size:6.75px; font-family:Arial;" text-anchor="middle"><textPath startOffset="21.46611528233685" xlink:href="#id45">September</textPath></text><line stroke="#e1ed5e" stroke-width="0.3" x1="15.007084014347285" x2="10.007500721073583" y1="101.09737516637583" y2="101.16192664675087" /><path d="M 14.007167355692545 101.11028546245083 a86.0,86.0 0 0,1 10.666146001902534,-42.60595125391555" fill="none" id="id46" stroke="none" /><text fill="#e1ed5e" style="font-size:6.75px; font-family:Arial;" text-anchor="middle"><textPath startOffset="22.20632615414155" xlink:href="#id46">October</textPath></text><line stroke="#e1ed5e" stroke-width="0.3" x1="26.266209847984243" x2="21.928928074336255" y1="57.711370442889674" y2="55.22380399835377" /><path d="M 25.398753493254645 57.213857153982495 a86.0,86.0 0 0,1 29.58750427330803,-30.492523968695096" fill="none" id="id47" stroke="none" /><text fill="#e1ed5e" style="font-size:6.75px; font-family:Arial;" text-anchor="middle"><textPath startOffset="21.46611528233685" xlink:href="#id47">November</textPath></text><line stroke="#e1ed5e" stroke-width="0.3" x1="56.762969772571076" x2="54.21961505331055" y1="26.818313649435495" y2="22.513508569990535" /><path d="M 56.25429882871897 25.957352633546506 a86.0,86.0 0 0,1 42.265352541879196,-11.944610805530505" fill="none" id="id48" stroke="none" /><text fill="#e1ed5e" style="font-size:6.75px; font-family:Arial;" text-anchor="middle"><textPath startOffset="22.20632615414155" xlink:href="#id48">December</textPath></text></svg>