<?xml version="1.0" encoding="utf-8" ?>
<svg baseProfile="full" height="200mm" version="1.1" viewBox="0,0,200,200" width="200mm" xmlns="http://www.w3.org/2000/svg" xmlns:ev="http://www.w3.org/2001/xml-events" xmlns:xlink="http://www.w3.org/1999/xlink"><defs /><rect fill="#1a1a1a" height="200" width="200" x="0" y="0" /><text alignment-baseline="middle" fill="#e1ed5e" style="dominant-baseline: central; font-size:9.0px; font-family:Arial;" text-anchor="middle" x="100.0" y="100.0">2024</text><line stroke="#e1ed5e" stroke-width="0.3" x1="100.0" x2="100.0" y1="15.0" y2="10.0" /><path d="M 100.0 14.0 a86.0,86.0 0 0,1 42.35913384403234,11.155469271406648" fill="none" id="id25" stroke="none" /><text fill="#e1ed5e" style="font-size:6.75px; font-family:Arial;" text-anchor="middle"><textPath startOffset="22.145653131862478" xlink:href="#id25">January</textPath></text><path d="M 100.0 79.0 l 0.0 -43.91752570240055 a64.91752570240055,64.91752570240055 0 0,0 1.114395653067099,0.009565746396223342 l -0.7539027282182443 43.91105435419877" fill="#31ff43" stroke="none" /><path d="M 100.72087961077811 79.0123766808444 l 0.8241697673435876 -23.994803528112904 a45.00895358315607,45.00895358315607 0 0,0 0.7719555058555001,0.03315109094154375 l -1.235951033799924 23.97711986874553" fill="#ffdf14" stroke="none" /><path d="M 101.80034050326958 79.07731436759882 l 4.679675298230843 -54.38492049075232 a75.58588588346188,75.58588588346188 0 0,0 1.2918003545478598,0.12233483665544698 l -5.612575216163716 54.29657389859169" fill="#41ffcd" stroke="none" /><path d="M 102.51750503828377 79.15144685158666 l 2.908358733154025 -24.085382432501422 a45.26034207179613,45.26034207179613 0 0,0 0.7705512418798282,0.09976328523464087 l -3.3213877969246446 24.031907551066386" fill="#ffe315" stroke="none" /><path d="M 103.23170211078529 79.25015418208739 l 5.996739274725108 -38.503367914232214 a59.967553460125735,59.967553460125735 0 0,0 1.0158003739349717,0.1671495649736232 l -6.656817151713151 38.39475235076292" fill="#59ff2a" stroke="none" /><path d="M 104.29559338865022 79.4440306129975 l 11.176407929294838 -53.483157846890045 a75.63845044908723,75.63845044908723 0 0,0 1.2687002379457075,0.2765073119048282 l -12.092870583859678 53.283419076851494" fill="#41ffce" stroke="none" /><path d="M 104.9986988182912 79.60360301121754 l 5.648675125957217 -23.04852212901867 a44.73061109643979,44.73061109643979 0 0,0 0.7442208927566427,0.18917804068557634 l -6.043501311939254 22.948158856497827" fill="#ffdb14" stroke="none" /><path d="M 105.69591212413111 79.78721728523813 l 10.562895787834165 -37.48399075428763 a59.943861265829376,59.943861265829376 0 0,0 0.988046066493,0.28760581001845137 l -11.20480186670877 37.297141249966664" fill="#59ff2a" stroke="none" /><path d="M 106.72888874123014 80.10723608172694 l 12.593733717571709 -37.23113597616863 a60.30343006691732,60.30343006691732 0 0,0 0.9777604696986782,0.3401158466007656 l -13.230999959315405 37.009461696999274" fill="#55ff2b" stroke="none" /><path d="M 107.74402155503746 80.48000691201159 l 14.37654720775776 -36.23829041927464 a59.98587952231654,59.98587952231654 0 0,0 0.9539055646688269,0.3879450887823705 l -14.996507233617027 35.98615807391298" fill="#58ff2a" stroke="none" /><path d="M 108.4095320186766 80.7573450057729 l 9.478285441943544 -21.688171980445972 a44.66885503720788,44.66885503720788 0 0,0 0.6999962620252295,0.3130994244108826 l -9.849195106824407 21.522268805125236" fill="#ffdb14" stroke="none" /><path d="M 109.06512990194946 81.05736502329252 l 24.141440890001522 -50.44632647709948 a76.92531647902894,76.92531647902894 0 0,0 1.1862607292383494,0.5802595669536862 l -25.00386186850194 50.02447316004857" fill="#43ffdd" stroke="none" /><path d="M 109.71004243097381 81.37971332152246 l 18.030262047510302 -34.575404855264395 a59.994217140588056,59.994217140588056 0 0,0 0.909087184869753,0.48403772140381995 l -18.621138048166614 34.260796666138006" fill="#58ff2a" stroke="none" /><path d="M 110.34350942703115 81.72400993836675 l 4.861283082528145 -8.589421407678936 a30.86966227016748,30.86966227016748 0 0,0 0.45894005120723774,0.26496916210639937 l -5.00801560159578 8.504705348296365" fill="#ff0000" stroke="none" /><line stroke="#e1ed5e" stroke-width="0.3" x1="143.13028292997686" x2="145.6673583964461" y1="26.7553504044142" y2="22.446841604673864" /><path d="M 143.63769802327073 25.89364864446614 a86.0,86.0 0 0,1 29.32050498858742,28.57503671076993" fill="none" id="id26" stroke="none" /><text fill="#e1ed5e" style="font-size:6.75px; font-family:Arial;" text-anchor="middle"><textPath startOffset="20.669276256404974" xlink:href="#id26">February</textPath></text><path d="M 111.27062007382361 82.28071324371311 l 29.240767602470097 -45.971343433488215 a75.48290472305405,75.48290472305405 0 0,0 1.0873649141761548,0.704816800198791 l -30.02561814890326 45.46261279158553" fill="#41ffcc" stroke="none" /><path d="M 111.8722381534696 82.67804972795209 l 13.282007361871296 -19.37884567856921 a44.493645510959,44.493645510959 0 0,0 0.6263114297435259,0.43721401975787344 l -13.612713882788583 19.147986843006212" fill="#ffd814" stroke="none" /><path d="M 113.03279911837588 83.53348406188908 l 33.80698066260198 -42.71401568027206 a75.47383846449662,75.47383846449662 0 0,0 1.0090105717732862,0.8127874925098383 l -34.53524200473053 42.127379893968815" fill="#41ffcc" stroke="none" /><path d="M 113.59037401385872 83.9905735841838 l 25.235828127567874 -29.727742079687715 a59.9946877207727,59.9946877207727 0 0,0 0.7794181864498071,0.673242865826043 l -25.74242579378054 29.290155081396954" fill="#58ff2a" stroke="none" /><path d="M 114.13192950727249 84.46653392183569 l 16.208808334450325 -17.816319724852995 a45.08623499347983,45.08623499347983 0 0,0 0.5680226429912988,0.5257532782670823 l -16.512260748755587 17.53544870045354" fill="#ffe115" stroke="none" /><path d="M 114.91283532996326 85.21462403516908 l 27.655132730535794 -27.418765495030808 a59.94348556068196,59.94348556068196 0 0,0 0.7182177215282529,0.7369546538158595 l -28.121737253214857 26.939988149147204" fill="#59ff2a" stroke="none" /><path d="M 115.41159269507618 85.73525988315684 l 37.817042486119924 -35.00288994949009 a72.5299040093528,72.5299040093528 0 0,0 0.8379010223993769,0.9210000022715887 l -38.41234120936118 34.34855237166083" fill="#3cffa8" stroke="none" /><path d="M 116.35404254752997 86.82634096563983 l 30.394798779088404 -24.48389836152 a60.029541014448476,60.029541014448476 0 0,0 0.639553498957689,0.8080549533685913 l -30.810618708687652 23.958523464236734" fill="#58ff2a" stroke="none" /><path d="M 117.01052211995028 87.68569379921539 l 42.20943370815742 -30.55637490599783 a73.10881251150548,73.10881251150548 0 0,0 0.7272060522884477,1.0229063830526406 l -42.72775485897583 29.827291296235686" fill="#3dffaf" stroke="none" /><path d="M 117.42321728460499 88.27688183743584 l 32.50462441088233 -21.870561938938707 a60.17744360748264,60.17744360748264 0 0,0 0.5693232082396705,0.8620279003451125 l -32.875272058042725 21.309354160254536" fill="#56ff2a" stroke="none" /><line stroke="#e1ed5e" stroke-width="0.3" x1="172.87174338648825" x2="177.1583165268699" y1="56.24261187166439" y2="53.66864786411523" /><path d="M 173.72905801456457 55.72781907015455 a86.0,86.0 0 0,1 12.242430191666344,42.057860355516425" fill="none" id="id27" stroke="none" /><text fill="#e1ed5e" style="font-size:6.75px; font-family:Arial;" text-anchor="middle"><textPath startOffset="22.145653131862474" xlink:href="#id27">March</textPath></text><path d="M 118.00360718960297 89.18935116829356 l 20.66021167213126 -12.405863493018096 a45.098750908390834,45.098750908390834 0 0,0 0.39284510387874777,0.6671368705291201 l -20.87013048613978 12.04937545419542" fill="#ffe115" stroke="none" /><path d="M 118.36410011445183 89.81374322990088 l 47.61700658149399 -26.41235087151864 a75.45173637582417,75.45173637582417 0 0,0 0.6185412998426403,1.138046323951941 l -48.06339323095197 25.591049714092097" fill="#41ffcb" stroke="none" /><path d="M 118.70294669586156 90.45014215332178 l 20.890132733214013 -10.666650621667912 a44.45581124361355,44.45581124361355 0 0,0 0.3412091197375367,0.6826468064029874 l -21.070161766163288 10.306471959101174" fill="#ffd714" stroke="none" /><path d="M 119.16976305983485 91.42560881287824 l 35.55080258954821 -15.901421810351462 a59.94502253628503,59.94502253628503 0 0,0 0.4120966759985094,0.9429578415179267 l -35.81853314756369 15.288801899057686" fill="#59ff2a" stroke="none" /><path d="M 119.4528033332814 92.08871423366111 l 58.358409999844184 -23.733857299016663 a84.0,84.0 0 0,0 0.5317653001355023,1.3403959311457387 l -58.75723397494581 22.728560350657357" fill="#4dd2ff" stroke="none" /><path d="M 119.71291397450082 92.76114493625339 l 21.993831463653304 -8.076439559762639 a44.42984204842374,44.42984204842374 0 0,0 0.25676181314148405,0.7182084889979591 l -22.129233446838732 7.697696114383763" fill="#ffd714" stroke="none" /><path d="M 120.05942366710727 93.78553927170692 l 37.21320666203103 -11.528746548898017 a59.95811529142238,59.95811529142238 0 0,0 0.2961464935082435,0.9857753604619133 l -37.405629475542895 10.888233584845379" fill="#59ff2a" stroke="none" /><path d="M 120.26092885502905 94.47779374421319 l 53.0594716552091 -14.46159494461729 a75.99495668397347,75.99495668397347 0 0,0 0.3322445918751256,1.2615868318751358 l -53.299905727888955 13.548627608369355" fill="#41ffd2" stroke="none" /><path d="M 120.43855184770803 95.1765574152323 l 22.92644019490768 -5.410577460538066 a44.55623077801627,44.55623077801627 0 0,0 0.16929063171503358,0.7459257595542738 l -23.01594168818038 5.016217367044766" fill="#ffd914" stroke="none" /><path d="M 120.65975698304385 96.23510406497455 l 38.2853936039856 -6.976874068208825 a59.915911079862255,59.915911079862255 0 0,0 0.17571106280820842,1.0134547168798729 l -38.39951948428604 6.318626318408359" fill="#59ff2a" stroke="none" /><path d="M 120.77682067341334 96.94652285012252 l 53.86002086179167 -7.915568295001651 a75.43857151565854,75.43857151565854 0 0,0 0.17730034131140476,1.2828569476631262 l -53.98796571965829 6.9898230391384395" fill="#41ffcb" stroke="none" /><path d="M 120.86939407059847 97.66154086499901 l 23.30008280493164 -2.6108228776145412 a44.44590059722481,44.44590059722481 0 0,0 0.07845253329222919,0.758957093201294 l -23.341467730705535 2.2104612621303157" fill="#ffd714" stroke="none" /><path d="M 120.96210409425399 98.7389718711861 l 38.80343544114026 -2.334318318708546 a59.87358542825447,59.87358542825447 0 0,0 0.05291231328973879,1.0264847421828367 l -38.83778934388657 1.6678617831489786" fill="#5aff2a" stroke="none" /><path d="M 120.99303781780057 99.45929381324524 l 54.44395351948838 -1.402283116663307 a75.46200944485514,75.46200944485514 0 0,0 0.022238181292933153,1.2952625729318799 l -54.46000313237998 0.4674736277623606" fill="#41ffcc" stroke="none" /><line stroke="#e1ed5e" stroke-width="0.3" x1="184.99686870605535" x2="189.99668451229388" y1="99.2704041080226" y2="99.22748670261217" /><path d="M 185.99683186730306 99.26182062694052 a86.0,86.0 0 0,1 -10.086455211305974,41.156179273409016" fill="none" id="id28" stroke="none" /><text fill="#e1ed5e" style="font-size:6.75px; font-family:Arial;" text-anchor="middle"><textPath startOffset="21.40746469413373" xlink:href="#id28">April</textPath></text><path d="M 120.99303781780057 100.54070618675476 l 23.73646749442638 0.6113672036096073 a44.744339514326555,44.744339514326555 0 0,0 -0.026367866981390077,0.7676716772965895 l -23.72247494044814 -1.0187451454703076" fill="#ffdc14" stroke="none" /><path d="M 120.98066250479742 100.90099992219065 l 38.932512561420886 1.671929605678826 a59.96839595045632,59.96839595045632 0 0,0 -0.05299610055616063,1.0281101927674723 l -38.89807487140815 -2.340011591823029" fill="#59ff2a" stroke="none" /><path d="M 120.93736805541906 101.62068470465957 l 62.02498837596665 4.801126373742051 a83.21052963522686,83.21052963522686 0 0,0 -0.12246362021081629,1.4232128991284576 l -61.93343113305809 -5.865160320246165" fill="#4cdaff" stroke="none" /><path d="M 120.86939407059847 102.33845913500097 l 23.217715448094417 2.601593443479062 a44.36301776470316,44.36301776470316 0 0,0 -0.09129890833409286,0.7560859318450672 l -23.16963445350066 -2.9997730522475377" fill="#ffd614" stroke="none" /><path d="M 120.77682067341334 103.0534771498775 l 38.52959526188996 5.662523664015471 a59.943470380676,59.943470380676 0 0,0 -0.1583606806082791,1.0167891697923257 l -38.42671308914341 -6.3231010157392475" fill="#59ff2a" stroke="none" /><path d="M 120.592083275326 104.11899336999214 l 53.5696886738072 10.715438041392698 a75.63087183111352,75.63087183111352 0 0,0 -0.2655806486274,1.27089954495913 l -53.377850314355435 -11.633454037637238" fill="#41ffce" stroke="none" /><line stroke="#e1ed5e" stroke-width="0.3" x1="174.33088141563837" x2="178.70328620479359" y1="141.23008692659167" y2="143.65538615756765" /><path d="M 175.20536237346943 141.71514677278685 a86.0,86.0 0 0,1 -30.301960400862466,31.631185727798858" fill="none" id="id29" stroke="none" /><text fill="#e1ed5e" style="font-size:6.75px; font-family:Arial;" text-anchor="middle"><textPath startOffset="22.145653131862474" xlink:href="#id29">May</textPath></text><line stroke="#e1ed5e" stroke-width="0.3" x1="143.1302829299769" x2="145.66735839644613" y1="173.24464959558577" y2="177.55315839532614" /><path d="M 143.63769802327073 174.10635135553383 a86.0,86.0 0 0,1 -40.68552437913181,11.842963189579606" fill="none" id="id30" stroke="none" /><text fill="#e1ed5e" style="font-size:6.75px; font-family:Arial;" text-anchor="middle"><textPath startOffset="21.407464694133747" xlink:href="#id30">June</textPath></text><line stroke="#e1ed5e" stroke-width="0.3" x1="101.45913802915013" x2="101.54496967792366" y1="184.9874750549273" y2="189.98673829345242" /><path d="M 101.47630435890484 185.9873277026323 a86.0,86.0 0 0,1 -42.54439059252881,-10.42667462771756" fill="none" id="id31" stroke="none" /><text fill="#e1ed5e" style="font-size:6.75px; font-family:Arial;" text-anchor="middle"><textPath startOffset="22.145653131862474" xlink:href="#id31">July</textPath></text><line stroke="#e1ed5e" stroke-width="0.3" x1="58.13341422392154" x2="55.67067388415222" y1="173.97424548756322" y2="178.32567169271397" /><path d="M 57.64086615596768 174.84453072859336 a86.0,86.0 0 0,1 -31.369924170532247,-30.572349798747897" fill="none" id="id32" stroke="none" /><text fill="#e1ed5e" style="font-size:6.75px; font-family:Arial;" text-anchor="middle"><textPath startOffset="22.145653131862474" xlink:href="#id32">August</textPath></text><line stroke="#e1ed5e" stroke-width="0.3" x1="26.387840678322732" x2="22.057713659400548" y1="142.50000000000003" y2="145.00000000000006" /><path d="M 25.521815274538298 143.00000000000003 a86.0,86.0 0 0,1 -11.493303480769221,-40.785679425670985" fill="none" id="id33" stroke="none" /><text fill="#e1ed5e" style="font-size:6.75px; font-family:Arial;" text-anchor="middle"><textPath startOffset="21.40746469413373" xlink:href="#id33">September</textPath></text><line stroke="#e1ed5e" stroke-width="0.3" x1="15.003131293944662" x2="10.003315487706104" y1="100.72959589197737" y2="100.7725132973878" /><path d="M 14.003168132696942 100.73817937305945 a86.0,86.0 0 0,1 10.791469493833604,-42.45332614584628" fill="none" id="id34" stroke="none" /><text fill="#e1ed5e" style="font-size:6.75px; font-family:Arial;" text-anchor="middle"><textPath startOffset="22.145653131862435" xlink:href="#id34">October</textPath></text><line stroke="#e1ed5e" stroke-width="0.3" x1="26.387840678322718" x2="22.05771365940052" y1="57.49999999999999" y2="54.99999999999999" /><path d="M 25.521815274538284 56.99999999999999 a86.0,86.0 0 0,1 29.574782752854787,-30.34633250058573" fill="none" id="id35" stroke="none" /><text fill="#e1ed5e" style="font-size:6.75px; font-family:Arial;" text-anchor="middle"><textPath startOffset="21.40746469413373" xlink:href="#id35">November</textPath></text><line stroke="#e1ed5e" stroke-width="0.3" x1="56.869717070023135" x2="54.33264160355391" y1="26.7553504044142" y2="22.446841604673864" /><path d="M 56.362301976729285 25.89364864446614 a86.0,86.0 0 0,1 42.16139366436587,-11.88097634709845" fill="none" id="id36" stroke="none" /><text fill="#e1ed5e" style="font-size:6.75px; font-family:Arial;" text-anchor="middle"><textPath startOffset="22.145653131862474" xlink:href="#id36">December</textPath></text></svg>